<svg width="40" height="40" viewBox="0 0 40 40" fill="none" xmlns="http://www.w3.org/2000/svg">
  <rect width="40" height="40" rx="8" fill="#3B99FC"/>
  <path d="M13.4 15.2c3.63-3.55 9.57-3.55 13.2 0l.44.43c.18.18.18.47 0 .65l-1.5 1.47c-.09.09-.24.09-.33 0l-.6-.59c-2.53-2.47-6.68-2.47-9.21 0l-.65.63c-.09.09-.24.09-.33 0l-1.5-1.47c-.18-.18-.18-.47 0-.65l.48-.47zm16.32 3.03l1.34 1.31c.18.18.18.47 0 .65l-6.04 5.9c-.18.18-.48.18-.66 0l-4.29-4.19c-.05-.04-.12-.04-.17 0l-4.29 4.19c-.18.18-.48.18-.66 0l-6.04-5.9c-.18-.18-.18-.47 0-.65l1.34-1.31c.18-.18.48-.18.66 0l4.29 4.19c.05.04.12.04.17 0l4.29-4.19c.18-.18.48-.18.66 0l4.29 4.19c.05.04.12.04.17 0l4.29-4.19c.18-.18.48-.18.66 0z" fill="white"/>
</svg>