<?xml version="1.0" encoding="UTF-8"?>
<svg version="1.1" xmlns="http://www.w3.org/2000/svg" width="1024" height="1024">
<path d="M0 0 C337.92 0 675.84 0 1024 0 C1024 337.92 1024 675.84 1024 1024 C686.08 1024 348.16 1024 0 1024 C0 686.08 0 348.16 0 0 Z " fill="#0A262D" transform="translate(0,0)"/>
<path d="M0 0 C3 1 3 1 4.42529297 3.27661133 C7.97208166 10.63863004 11.17925389 18.06563166 14.125 25.6875 C14.82061035 27.47099854 14.82061035 27.47099854 15.53027344 29.29052734 C19.79002731 40.26336962 23.80566632 51.32502349 27.78833008 62.40087891 C30.34548951 69.50535091 32.97932141 76.56268959 35.8125 83.5625 C41.74683542 98.46676379 45.67384246 114.09035213 49.3125 129.6875 C49.67613647 131.24404297 49.67613647 131.24404297 50.04711914 132.83203125 C53.06298664 146.161079 54.34221769 158.81890487 54.25 172.4375 C54.24723053 173.23837036 54.24446106 174.03924072 54.24160767 174.86437988 C54.06679649 218.30576518 46.60890751 253.2160637 27 292 C26.19954705 293.59847107 25.39992195 295.1973573 24.6015625 296.796875 C23.63765892 298.72583075 22.67308592 300.65440183 21.70410156 302.58081055 C16.22548243 313.48599896 10.82649449 324.38791523 7 336 C6.65840851 336.90605988 6.31681702 337.81211975 5.96487427 338.74563599 C4.94986769 342.16908812 4.75864319 344.9021549 4.77294922 348.46435547 C4.77310028 349.72520966 4.77325134 350.98606384 4.77340698 352.28512573 C4.78361783 353.64581463 4.79404978 355.00650188 4.8046875 356.3671875 C4.80842176 357.77108559 4.81126678 359.1749863 4.81326294 360.57888794 C4.82086696 364.25813097 4.8404873 367.93721389 4.8626709 371.61639404 C4.88319929 375.37705317 4.89227956 379.13773839 4.90234375 382.8984375 C4.92373657 390.26569767 4.95783302 397.63282632 5 405 C6.12106787 403.56492341 7.24126034 402.12916294 8.36108398 400.69311523 C8.9849852 399.89364975 9.60888641 399.09418427 10.25169373 398.27049255 C15.89378213 390.94321821 20.08554614 383.59173605 22.91015625 374.82421875 C23.1644339 374.04778015 23.41871155 373.27134155 23.68069458 372.47137451 C26.34170516 364.19182633 28.52863017 355.79486105 30.69613647 347.3755188 C34.68756875 331.93857148 38.89697 316.75829419 45 302 C45.30437988 301.24428711 45.60875977 300.48857422 45.92236328 299.70996094 C53.28189799 281.57327117 63.10216103 264.53216179 75 249 C75.65226562 248.14792969 76.30453125 247.29585937 76.9765625 246.41796875 C86.38164196 234.43907125 96.55448303 223.07404378 107 212 C107.67289063 211.27296875 108.34578125 210.5459375 109.0390625 209.796875 C114.57012383 204.00691293 120.87122371 199.22667269 127.21386719 194.37158203 C128.88272773 193.09005407 130.54080168 191.79606653 132.1953125 190.49609375 C138.81918364 185.32482593 145.59505532 180.4250863 152.48046875 175.60839844 C159.50342357 170.68161281 166.35583276 165.54320999 173.19238281 160.36230469 C174.85682476 159.10790354 176.53334803 157.86957554 178.2109375 156.6328125 C184.63232294 151.89683006 190.75514085 146.90833902 196.80859375 141.71875 C200.7298576 138.3607418 204.74053687 135.11743018 208.7578125 131.875 C210.97403536 130.10300757 210.97403536 130.10300757 212.6171875 128.25 C214 127 214 127 217 127 C220.11757977 139.26248042 220.16266839 151.65620249 220.125 164.25 C220.12886719 165.52746094 220.13273438 166.80492187 220.13671875 168.12109375 C220.1211828 183.61043826 219.15708235 198.446116 216 213.625 C215.77290848 214.73837234 215.77290848 214.73837234 215.54122925 215.87423706 C210.97957846 238.1169751 205.55668514 260.76547638 195 281 C194.67676758 281.62600098 194.35353516 282.25200195 194.02050781 282.89697266 C186.24985314 297.72307249 175.92609838 311.43108955 163.078125 322.23046875 C160.75381968 324.20962346 158.54356403 326.29147407 156.3125 328.375 C146.02328089 337.61493802 134.23137702 344.65525948 122 351 C121.34 351.34417969 120.68 351.68835938 120 352.04296875 C103.45587817 360.47659336 85.26449116 364.5706321 67.296875 368.84765625 C66.05147949 369.14728271 64.80608398 369.44690918 63.52294922 369.75561523 C61.16894055 370.31662613 58.81133 370.86282842 56.44970703 371.39086914 C44.19536734 374.28839742 34.12294653 379.38589515 27.0078125 389.9609375 C9.01085732 419.63893528 6.01846377 456.87065303 5.68359375 490.76953125 C5.6629715 492.54457525 5.64197387 494.31961492 5.62062073 496.09465027 C5.56594332 500.72226412 5.51629908 505.34991819 5.46777344 509.9776001 C5.41715656 514.71752416 5.36168225 519.45739124 5.30664062 524.19726562 C5.19972569 533.46479485 5.09813835 542.73237397 5 552 C5.66 552 6.32 552 7 552 C7.24363281 551.35160156 7.48726562 550.70320312 7.73828125 550.03515625 C8.72899321 547.65192655 9.77694876 545.36952722 10.91796875 543.05859375 C18.78464954 527.10922942 24.49756444 511.34286598 28.09790039 493.91894531 C38.44747221 444.12485307 63.13687799 396.03112553 106.21484375 367.01953125 C111.46867898 363.62220621 116.90787693 360.60978618 122.4375 357.6875 C123.31712402 357.22021484 124.19674805 356.75292969 125.10302734 356.27148438 C139.25279339 349.02933738 154.29365197 344.12081364 169.45336914 339.48791504 C203.77368343 328.95931483 235.98588714 315.8305816 264.28173828 293.21337891 C268.49070853 289.95625211 268.49070853 289.95625211 271.41015625 290.20703125 C271.93480469 290.46871094 272.45945312 290.73039062 273 291 C268.70051866 337.25648889 245.52109086 384.56196636 216 420 C215.21625 420.95519531 214.4325 421.91039062 213.625 422.89453125 C178.01520218 465.9122792 135.61310768 494.14325652 81.1875 508 C71.64733142 510.44497263 62.1150036 512.90431521 52.65234375 515.63671875 C51.96271042 515.8322937 51.27307709 516.02786865 50.56254578 516.22937012 C39.93733288 519.34835421 32.04426417 524.94640549 26.51074219 534.59741211 C22.79642701 541.87303449 20.18791023 549.07867314 18 556.9375 C17.66532715 558.10684082 17.3306543 559.27618164 16.98583984 560.48095703 C16.30731418 562.85466545 15.63325696 565.22965612 14.96386719 567.60595703 C14.07570162 570.73343366 13.15887408 573.85029099 12.2265625 576.96484375 C11.69256658 578.7681872 11.15870394 580.57157012 10.625 582.375 C10.26728516 583.55630493 10.26728516 583.55630493 9.90234375 584.76147461 C6.21564916 597.44247866 5.67790987 610.0162887 5.5859375 623.11328125 C5.56718246 624.82106923 5.54760599 626.52884837 5.5272522 628.23661804 C5.47638223 632.68666315 5.43651796 637.13673816 5.39910889 641.58691406 C5.3587828 646.14590575 5.30782245 650.70477796 5.2578125 655.26367188 C5.16158923 664.17569677 5.07701667 673.08778985 5 682 C5.99 682 6.98 682 8 682 C8.41886475 681.1330249 8.41886475 681.1330249 8.84619141 680.24853516 C9.95365688 678.09031319 11.1615773 676.0707798 12.4609375 674.0234375 C19.80527746 662.53857534 19.80527746 662.53857534 25 650 C25.39445312 648.7521875 25.78890625 647.504375 26.1953125 646.21875 C28.87428287 637.52623869 31.06383964 628.75292125 33.09765625 619.890625 C34.8704133 612.24704914 36.89467651 605.20988473 40 598 C40.66834857 596.15464819 41.33642297 594.30914898 41.98925781 592.45825195 C61.39084832 538.04560948 116.71853298 505.02868217 166 481 C176.04201439 476.32010767 186.36772331 472.70969807 196.99023438 469.59204102 C199.26684698 468.92139165 201.53731134 468.23144566 203.80859375 467.54296875 C209.05896092 465.96760918 214.33540447 464.49993108 219.625 463.0625 C221.07374512 462.66792603 221.07374512 462.66792603 222.55175781 462.26538086 C227.93813916 460.80608475 233.33142458 459.39701114 238.75 458.0625 C245.91924691 456.29423373 253.05512726 454.41143143 260.1875 452.5 C261.25645508 452.21519775 262.32541016 451.93039551 263.42675781 451.63696289 C275.83575952 448.29644438 287.91342646 444.45863047 299.875 439.75 C301.09574219 439.27272461 302.31648437 438.79544922 303.57421875 438.30371094 C311.51271791 435.14395155 318.98608985 431.65455938 326.3125 427.265625 C329.32526669 425.84682208 329.97232035 426.04295627 333 427 C332.57849907 430.50211709 332.13487816 434.00110213 331.6875 437.5 C331.51057617 438.97339844 331.51057617 438.97339844 331.33007812 440.4765625 C330.65447199 445.67353275 329.73538638 450.28751687 327.72680664 455.12988281 C326.98488437 457.03889341 326.50068915 458.89493326 326.046875 460.890625 C324.90801458 465.6944601 323.10739001 470.1842263 321.25 474.75 C320.89075439 475.6354248 320.53150879 476.52084961 320.16137695 477.43310547 C313.60281072 493.4164118 304.98771317 508.32500853 294.8984375 522.3515625 C292.25857498 526.03433367 289.69327899 529.76709386 287.125 533.5 C286.63580078 534.20785645 286.14660156 534.91571289 285.64257812 535.64501953 C285.18560547 536.30872559 284.72863281 536.97243164 284.2578125 537.65625 C283.8467627 538.25244141 283.43571289 538.84863281 283.01220703 539.46289062 C281.93221495 541.03689455 281.93221495 541.03689455 281 543 C280.34 543 279.68 543 279 543 C278.77183594 543.68964844 278.54367187 544.37929688 278.30859375 545.08984375 C276.70315813 548.66014088 274.49678655 551.53301586 272.0625 554.5625 C271.32833862 555.48385742 271.32833862 555.48385742 270.5793457 556.42382812 C265.65440315 562.53722359 260.43486145 568.33750961 255 574 C254.19755859 574.84328857 254.19755859 574.84328857 253.37890625 575.70361328 C238.51319141 591.25167474 222.01622027 603.37373724 202.98828125 613.421875 C200.57272983 614.69753875 198.18149423 616.00322735 195.79296875 617.328125 C194.27883976 618.15660453 192.76451652 618.98472913 191.25 619.8125 C190.18567749 620.40913452 190.18567749 620.40913452 189.09985352 621.01782227 C184.65642849 623.41988464 181.04446464 624.59723515 176 625 C176 625.66 176 626.32 176 627 C150.1817221 636.10644686 123.32736995 643.37891353 96.09765625 646.60546875 C93.37380995 646.9523899 90.74451058 647.42118058 88.0625 648 C84.50951932 648.76471438 80.97984814 649.25215037 77.3671875 649.64794922 C62.09316563 651.33578671 42.99540754 654.65745413 32.3828125 666.859375 C30.77212278 669.17528562 29.37628078 671.53681029 28 674 C27.37351562 675.10601563 26.74703125 676.21203125 26.1015625 677.3515625 C15.09216659 697.18071371 7.17959262 717.56189997 6.6484375 740.48828125 C6.61309654 741.86918442 6.61309654 741.86918442 6.57704163 743.27798462 C6.50345372 746.28938229 6.4382572 749.30086851 6.375 752.3125 C6.35220978 753.34013458 6.32941956 754.36776917 6.30593872 755.42654419 C5.84510879 776.97206474 6.25442079 798.46611714 7 820 C10.65141731 816.69553643 12.62858815 814.35396236 13.80859375 809.5625 C14.07728271 808.51336426 14.34597168 807.46422852 14.62280273 806.38330078 C14.89165283 805.26681152 15.16050293 804.15032227 15.4375 803 C16.04060538 800.64295736 16.6447861 798.28618962 17.25 795.9296875 C17.54519531 794.75760742 17.84039063 793.58552734 18.14453125 792.37792969 C24.49876426 767.28741371 32.95594967 744.27777284 48 723 C48.66902344 722.030625 49.33804687 721.06125 50.02734375 720.0625 C57.54215174 709.70817757 66.74594802 700.98354907 75.88208008 692.07104492 C77.59119827 690.3997539 79.28594229 688.71717363 80.96875 687.01953125 C86.01740812 682 86.01740812 682 89 682 C89 681.34 89 680.68 89 680 C91.15428098 678.35602388 93.29737161 676.85327095 95.5625 675.375 C96.2421582 674.92769531 96.92181641 674.48039063 97.62207031 674.01953125 C103.88371997 669.96260641 110.35220667 666.44243311 116.98828125 663.04492188 C119.08075478 661.95805456 121.15043286 660.83523666 123.21875 659.703125 C141.13309228 649.9577228 159.75475238 641.21541143 179.2578125 635.16796875 C182.51592874 634.15108278 185.68699296 633.0271939 188.875 631.8125 C193.57972791 630.06358425 198.34067068 628.87778792 203.21875 627.71484375 C206.2846974 626.92682637 209.16246621 625.90582971 212.1015625 624.7421875 C214.80388743 623.68572302 217.55275757 622.79255012 220.30859375 621.88671875 C222.42822949 621.18837722 224.54478177 620.48067635 226.66015625 619.76953125 C227.31298584 619.55022949 227.96581543 619.33092773 228.63842773 619.10498047 C230.5429868 618.46505611 232.44728068 617.82434266 234.3515625 617.18359375 C236.78669842 616.39360854 239.23824716 615.65255934 241.703125 614.9609375 C244.34294863 614.19151023 246.65542732 613.36229672 249.125 612.1875 C252.65709038 610.55776031 256.21444317 609.1896416 259.875 607.875 C280.0107977 600.18636013 299.06217927 588.2139027 316 575 C317.99113047 573.46757269 319.99090911 571.94630344 322 570.4375 C322.86625 569.77621094 323.7325 569.11492188 324.625 568.43359375 C327 567 327 567 331 567 C332.29473299 577.23798125 328.83983926 586.57308151 325.85986328 596.21289062 C325.01388483 598.95499453 324.18883908 601.70248193 323.37109375 604.453125 C322.1591064 608.52780706 320.93918533 612.59984767 319.69970703 616.66625977 C319.21280108 618.29024233 318.74091121 619.91877143 318.28076172 621.55053711 C316.78975736 626.76905238 315.02218295 631.38097152 312.5 636.1875 C310.74679594 639.55165253 309.0561268 642.8668728 307.58203125 646.36328125 C297.91574874 668.58379735 284.04415101 690.07276338 269 709 C268.22527344 709.98613281 267.45054687 710.97226562 266.65234375 711.98828125 C264.78707681 714.34165543 262.89811448 716.67313496 261 719 C260.56558594 719.55816406 260.13117187 720.11632812 259.68359375 720.69140625 C256.77447726 724.3686063 253.45310984 727.32316237 249.90234375 730.3515625 C248.40078061 731.65271167 246.96743434 733.03256566 245.5625 734.4375 C243.19950837 736.80049163 240.78664972 739.06685455 238.3125 741.3125 C237.16201172 742.35857422 237.16201172 742.35857422 235.98828125 743.42578125 C234 745 234 745 232 745 C232 745.66 232 746.32 232 747 C229.41209308 749.27261408 226.5113612 751.1572002 223.6875 753.125 C222.90181641 753.68832031 222.11613281 754.25164063 221.30664062 754.83203125 C220.54931641 755.36441406 219.79199219 755.89679687 219.01171875 756.4453125 C217.96697388 757.18031982 217.96697388 757.18031982 216.90112305 757.93017578 C215 759 215 759 212 759 C212 759.66 212 760.32 212 761 C209.59293011 762.63039689 207.20165014 764.11245167 204.6875 765.5625 C203.93001465 766.00360107 203.1725293 766.44470215 202.39208984 766.89916992 C194.49512109 771.41760522 186.3263514 775.29626331 178.05029297 779.06298828 C176.30902851 779.85876978 174.57724142 780.67523734 172.84765625 781.49609375 C166.84678467 784.32469842 160.72377699 786.61503429 154.45703125 788.7890625 C152.05163423 789.63163095 149.6641687 790.52644985 147.29296875 791.4609375 C142.13747108 793.3992615 136.84581499 794.69911727 131.5 796 C130.54480469 796.2475 129.58960938 796.495 128.60546875 796.75 C107.65037901 801.86229635 86.40651791 802.43822487 64.94921875 802.51123047 C45.12474876 802.0467856 45.12474876 802.0467856 27 809 C12.06793818 825.69780692 8.03307654 848.57725493 7 870 C1.32146663 870.91262143 -3.32594134 870.99544889 -9 870 C-11.08963964 867.91036036 -10.27751883 863.34176648 -10.375 860.4375 C-10.97396057 847.08923591 -12.62169126 834.94581553 -19 823 C-19.47695313 822.05253906 -19.95390625 821.10507812 -20.4453125 820.12890625 C-24.58760683 812.13709756 -28.57565027 805.06301149 -37.3125 801.71484375 C-49.27890361 798.53191953 -62.41025685 800.20129038 -74.62890625 800.73046875 C-128.99141131 803.06751838 -190.084475 785.55174089 -232 750 C-233.85592885 748.22396851 -235.66183041 746.40993869 -237.45507812 744.57080078 C-239.22126518 742.77502842 -241.07639859 741.12511153 -243 739.5 C-248.72534231 734.54686186 -253.86009128 729.2228905 -258.79296875 723.48828125 C-261.15508876 720.82514771 -263.58432287 718.23592546 -266.02734375 715.6472168 C-291.88448938 688.22183255 -310.35801078 657.45800813 -322.875 621.9375 C-323.1318457 621.20869629 -323.38869141 620.47989258 -323.65332031 619.72900391 C-335.50668943 585.95932531 -335.50668943 585.95932531 -335 568 C-329.48902194 568.33432548 -326.0592581 571.75075058 -321.9375 575.0625 C-320.40961177 576.25914492 -318.87965697 577.45315587 -317.34765625 578.64453125 C-316.60273926 579.22412598 -315.85782227 579.8037207 -315.09033203 580.40087891 C-299.53518728 592.30069182 -281.28414409 603.16829678 -262.91796875 609.8828125 C-260.48730499 610.81342808 -258.2829589 611.82769204 -256 613.0625 C-251.56028053 615.40018668 -246.8225944 616.65679729 -242.0234375 618.0625 C-239 619 -239 619 -235.5625 620.5625 C-231.03507946 622.3893539 -226.48135759 623.24046916 -221.6953125 624.15625 C-219.05531568 624.75903997 -216.70234816 625.4071909 -214.16796875 626.2890625 C-209.71558472 627.8203956 -205.21034455 629.07452189 -200.66796875 630.3046875 C-199.90516602 630.51220642 -199.14236328 630.71972534 -198.35644531 630.93353271 C-195.16959349 631.79927763 -191.98217883 632.66266454 -188.79174805 633.51513672 C-173.40903719 637.6342375 -159.46975382 643.59303529 -145.1875 650.5625 C-144.46922028 650.9121582 -143.75094055 651.26181641 -143.01089478 651.62207031 C-105.25401379 670.0159252 -105.25401379 670.0159252 -93 679 C-92.04722168 679.680625 -92.04722168 679.680625 -91.07519531 680.375 C-76.54609039 690.75969296 -76.54609039 690.75969296 -71.4296875 697.21484375 C-69.92468481 699.09404109 -68.30038993 700.71048765 -66.5625 702.375 C-62.31288003 706.55701238 -58.43242232 711.12328568 -55 716 C-55 716.66 -55 717.32 -55 718 C-54.34 718 -53.68 718 -53 718 C-51.18499042 720.12667789 -49.51911228 722.24539219 -47.875 724.5 C-47.13902588 725.50909424 -47.13902588 725.50909424 -46.38818359 726.53857422 C-33.61331338 744.53668775 -27.71195004 765.7967825 -21.18212891 786.60644531 C-17.43803207 799.42361792 -17.43803207 799.42361792 -11 811 C-10.34 811.33 -9.68 811.66 -9 812 C-8.90558224 802.79121778 -8.83539444 793.58261236 -8.79275131 784.37344456 C-8.77224197 780.09310381 -8.74463602 775.81310364 -8.69824219 771.53295898 C-7.81043496 711.0419884 -7.81043496 711.0419884 -35.59130859 659.43554688 C-47.68800291 647.10823967 -65.42028895 645.86967699 -81.8125 644.4375 C-83.17422613 644.3104261 -84.53587885 644.18256327 -85.89746094 644.05395508 C-92.13357111 643.47322611 -98.36883626 642.95641285 -104.62109375 642.578125 C-122.39909867 641.47285831 -139.9711324 638.60705206 -156.85058594 632.73901367 C-159.10302744 631.964577 -161.36897001 631.26092391 -163.6484375 630.5703125 C-172.40147192 627.90392202 -180.80297153 625.11575904 -189 621 C-190.22989626 620.40766401 -191.46041289 619.81661511 -192.69140625 619.2265625 C-216.20256953 607.84806562 -237.11708689 593.0560301 -256 575 C-256.75168457 574.28231445 -257.50336914 573.56462891 -258.27783203 572.82519531 C-269.61800678 561.92556768 -279.94450959 550.86800114 -289 538 C-289.46664062 537.34612305 -289.93328125 536.69224609 -290.4140625 536.01855469 C-293.69968879 531.4044524 -296.87963655 526.7272312 -300 522 C-300.49918945 521.24428711 -300.99837891 520.48857422 -301.51269531 519.70996094 C-316.41759841 496.99283277 -326.76742095 473.83362477 -332.75 447.25 C-332.97308838 446.27933594 -333.19617676 445.30867188 -333.42602539 444.30859375 C-334.71016082 438.40247971 -335.22381719 433.04306406 -335 427 C-332.01250731 427.64461643 -329.5141582 428.62853011 -326.7890625 430.00390625 C-309.57121243 438.53684038 -291.98455299 445.08247988 -273.50048828 450.28125 C-270.55282296 451.12853829 -267.61853731 452.01589829 -264.68359375 452.90625 C-249.04890745 457.63892989 -233.41947641 461.91978681 -217.3984375 465.1328125 C-198.2687309 469.00780018 -180.10945799 474.67129715 -162.89941406 483.98339844 C-160.97623715 485.01271832 -159.03556364 485.99837637 -157.0859375 486.9765625 C-139.46063096 495.91046154 -122.20037026 506.33302479 -107 519 C-106.45311523 519.45358887 -105.90623047 519.90717773 -105.34277344 520.37451172 C-101.52820175 523.54468632 -97.75625007 526.76098758 -94 530 C-92.92492187 530.92232422 -92.92492187 530.92232422 -91.828125 531.86328125 C-89.86969867 533.55869578 -87.93147245 535.27392667 -86 537 C-85.0409375 537.85464844 -84.081875 538.70929687 -83.09375 539.58984375 C-77.34765762 544.75236263 -71.83543635 549.95570456 -67 556 C-66.29359375 556.85722656 -65.5871875 557.71445312 -64.859375 558.59765625 C-49.7126019 577.73720117 -41.35809694 602.85616835 -35.3125 626.25 C-34.04440247 631.11613329 -32.19732972 635.48534987 -30 640 C-29.59136719 640.87914062 -29.18273437 641.75828125 -28.76171875 642.6640625 C-25.84970499 648.7505814 -22.56156856 654.52733729 -19 660.25 C-18.59700684 660.89912354 -18.19401367 661.54824707 -17.77880859 662.21704102 C-15.59726986 665.66713008 -13.30091757 668.98375801 -10.83984375 672.24121094 C-10.30609131 672.94888611 -9.77233887 673.65656128 -9.22241211 674.38568115 C-8.81901611 674.91840637 -8.41562012 675.45113159 -8 676 C-8.01503249 666.84436609 -8.05731696 657.68934308 -8.13209057 648.53400135 C-8.1660241 644.28033046 -8.19141708 640.02700585 -8.19555664 635.77319336 C-8.21997986 617.24637703 -8.3359605 599.82585216 -14 582 C-14.65301058 579.65513352 -15.30542765 577.3101016 -15.95703125 574.96484375 C-16.56611704 572.95285834 -17.18446984 570.94365276 -17.8125 568.9375 C-18.14797852 567.85823242 -18.48345703 566.77896484 -18.82910156 565.66699219 C-21.06934094 558.60033943 -23.52095222 551.64263639 -26.25 544.75 C-26.56686768 543.9468335 -26.88373535 543.14366699 -27.21020508 542.31616211 C-30.71607292 533.76537712 -34.09529569 529.34928547 -42.57421875 525.4296875 C-52.75013576 521.18295361 -63.23706811 518.37333876 -73.875 515.5625 C-117.03548365 504.09689686 -161.681918 483.28894535 -194 452 C-194.82419434 451.20303711 -195.64838867 450.40607422 -196.49755859 449.58496094 C-207.40459645 438.98426807 -218.20187494 428.46777039 -227 416 C-227.38945801 415.46552246 -227.77891602 414.93104492 -228.18017578 414.38037109 C-237.12986994 402.06223807 -243.95833982 388.46043825 -251 375 C-251.79664351 373.502481 -252.59348513 372.00506734 -253.390625 370.5078125 C-266.31906238 345.85779662 -274.93421547 318.95726296 -274 291 C-271.67247419 290.17167842 -270.49645336 289.78645303 -268.18261719 290.78173828 C-267.56032227 291.20696777 -266.93802734 291.63219727 -266.296875 292.0703125 C-265.5764502 292.54807129 -264.85602539 293.02583008 -264.11376953 293.51806641 C-262.94370361 294.31349854 -262.94370361 294.31349854 -261.75 295.125 C-231.60044858 314.8627733 -198.1800459 329.09606474 -164.75 342.25 C-155.21216104 346.01722016 -146.01474081 350.1129997 -137 355 C-136.33178223 355.3594873 -135.66356445 355.71897461 -134.97509766 356.08935547 C-115.30940216 366.72756906 -97.11004558 379.47414017 -81 395 C-79.59814453 396.28970703 -79.59814453 396.28970703 -78.16796875 397.60546875 C-54.67372866 419.85106391 -42.34172855 453.12597852 -34.58984375 483.828125 C-26.90305207 518.71215643 -26.90305207 518.71215643 -9 549 C-8.90670926 537.44601646 -8.8359384 525.89212471 -8.79275131 514.33783913 C-8.77200816 508.97085754 -8.7439375 503.60413643 -8.69824219 498.23730469 C-8.65430543 493.04362864 -8.63076354 487.85020077 -8.62049103 482.656353 C-8.61318446 480.68951901 -8.59892085 478.72269629 -8.57707977 476.75597 C-8.38731586 458.9353593 -11.4862442 443.35182083 -17.25 426.5 C-17.63841064 425.35289551 -18.02682129 424.20579102 -18.42700195 423.02392578 C-25.20140348 403.38187675 -31.58001999 385.31625793 -51.12011719 375.69262695 C-60.20335242 371.56742712 -69.95246677 368.83225381 -79.42700195 365.75805664 C-113.81740773 354.55398256 -141.69383916 336.78781867 -168 312 C-168.86753906 311.19820313 -169.73507812 310.39640625 -170.62890625 309.5703125 C-186.4684076 294.44966176 -197.75429385 273.52068603 -205 253 C-205.22848633 252.35804688 -205.45697266 251.71609375 -205.69238281 251.0546875 C-210.08756864 238.51330121 -212.94651177 225.77230038 -215.46728516 212.73852539 C-215.98448877 210.07973852 -216.52614649 207.42681524 -217.0703125 204.7734375 C-219.8987403 190.55694002 -220.20725981 176.38386221 -220.25 161.9375 C-220.25517639 161.12799896 -220.26035278 160.31849792 -220.26568604 159.48446655 C-220.30926394 150.83249986 -220.31678381 142.41351388 -218 134 C-213.17296878 134.45773572 -210.93053804 135.48070004 -207.5 138.875 C-193.06235174 152.49623362 -176.39237107 164.60587989 -159.2109375 174.51171875 C-158.48132813 175.00285156 -157.75171875 175.49398437 -157 176 C-157 176.66 -157 177.32 -157 178 C-155.77023437 178.32871094 -155.77023437 178.32871094 -154.515625 178.6640625 C-150.11872891 180.33488302 -146.60652628 182.71590704 -142.75 185.375 C-141.14347083 186.46650162 -139.53669295 187.55763723 -137.9296875 188.6484375 C-137.11209961 189.2062793 -136.29451172 189.76412109 -135.45214844 190.33886719 C-133.10867899 191.92637875 -130.75049871 193.48795955 -128.3828125 195.0390625 C-106.39201944 209.45189902 -88.01528968 224.55583887 -72.47265625 245.97167969 C-71.07940454 247.89063446 -69.66739331 249.79415669 -68.25 251.6953125 C-48.56723732 278.3375222 -40.83944584 307.71885166 -34.96826172 339.91601562 C-28.70652254 374.69253482 -28.70652254 374.69253482 -10 404 C-9.01 404.66 -8.02 405.32 -7 406 C-7.01501716 398.45300171 -7.0572361 390.90654334 -7.13209057 383.35990906 C-7.16605746 379.85378851 -7.19142235 376.34808958 -7.19555664 372.84179688 C-7.14491727 350.91361002 -7.14491727 350.91361002 -13 330 C-13.39179443 328.92049072 -13.78358887 327.84098145 -14.18725586 326.72875977 C-17.12236467 318.65338958 -20.68314529 310.85997429 -24.27310181 303.06054688 C-25.2755253 300.88202707 -26.27256603 298.70111124 -27.26831055 296.51953125 C-29.64198698 291.32111631 -32.02198647 286.12563065 -34.41064453 280.93408203 C-45.66465778 256.46393298 -55.1310871 232.76552605 -59 206 C-59.185625 204.73414063 -59.37125 203.46828125 -59.5625 202.1640625 C-63.11788521 172.48985148 -56.3152165 142.57977924 -49 114 C-48.7716748 113.1018457 -48.54334961 112.20369141 -48.30810547 111.27832031 C-47.17336828 106.86890373 -45.95974257 102.49153703 -44.64355469 98.1328125 C-44.20349046 96.67439024 -43.77224861 95.21328455 -43.34863281 93.75 C-38.28105695 76.40023954 -30.56435905 60.22481068 -22.89630127 43.91046143 C-21.56748777 41.07810246 -20.25201262 38.23955309 -18.93359375 35.40234375 C-4.43442747 4.43442747 -4.43442747 4.43442747 0 0 Z " fill="#2A7E7E" transform="translate(520,75)"/>
<path d="M0 0 C27.09452127 3.77408093 49.65235002 17.0767673 69.29296875 35.46875 C72.78826722 38.73708103 76.3528252 41.902796 80 45 C80.7321875 45.63421875 81.464375 46.2684375 82.21875 46.921875 C102.54973123 63.95237226 128.80606206 71.21943198 153.74002075 78.81134033 C165.43497979 82.38095246 176.93576385 86.00398374 187.6875 91.9375 C188.48841064 92.3691748 189.28932129 92.80084961 190.11450195 93.24560547 C192.41480968 94.48789713 194.70793823 95.74257823 197 97 C198.21831676 97.66095545 199.43702223 98.32119531 200.65625 98.98046875 C203.10930015 100.31131168 205.5575692 101.6498023 208 103 C208 103.66 208 104.32 208 105 C202.60801257 103.29726713 197.4091662 101.35939391 192.1875 99.1875 C178.99223559 93.82423143 165.23940724 90.30299729 151.47705078 86.72753906 C104.28271071 74.45904894 104.28271071 74.45904894 86.953125 59.6640625 C84.89840839 57.84749768 84.89840839 57.84749768 82 56 C82 55.34 82 54.68 82 54 C81.41226807 53.74347656 80.82453613 53.48695313 80.21899414 53.22265625 C77.79469108 51.88687567 76.35242408 50.48201901 74.49609375 48.4375 C73.84358643 47.72787109 73.1910791 47.01824219 72.51879883 46.28710938 C71.83197021 45.53236328 71.1451416 44.77761719 70.4375 44 C50.23356529 22.22193981 28.9738358 8.94847646 0 2 C0 1.34 0 0.68 0 0 Z " fill="#0D2633" transform="translate(273,746)"/>
<path d="M0 0 C4.01678556 1.40914358 7.04955656 3.30937293 10.4375 5.875 C10.9519165 6.26429688 11.46633301 6.65359375 11.99633789 7.0546875 C16.11468441 10.21552308 20.02960597 13.58487115 23.9375 17 C34.66173787 26.34386107 45.74013518 34.48113567 59.60546875 38.2890625 C62 39 62 39 64.21679688 39.97265625 C67.45612635 41.16836664 70.50736795 41.6592167 73.92578125 42.1484375 C75.28552393 42.34834626 76.6452229 42.54855251 78.00488281 42.74902344 C78.70891235 42.85081909 79.41294189 42.95261475 80.13830566 43.05749512 C107.65563328 47.07594266 132.07991419 54.129911 154 72 C154.62519531 72.48984375 155.25039063 72.9796875 155.89453125 73.484375 C157.30398038 74.606653 158.65911275 75.79663965 160 77 C160 77.66 160 78.32 160 79 C160.99 79.33 161.98 79.66 163 80 C164.83418559 82.02382675 166.51996495 84.03311016 168.1875 86.1875 C168.6729126 86.80955322 169.1583252 87.43160645 169.65844727 88.07250977 C174.46030056 94.36767537 178.24803331 101.03922439 182 108 C182.70353335 109.19063272 183.40797254 110.38073061 184.11328125 111.5703125 C185.76146677 114.56639301 186.85215657 117.16037149 187.75 120.4375 C187.99234375 121.30246094 188.2346875 122.16742187 188.484375 123.05859375 C188.65453125 123.69925781 188.8246875 124.33992187 189 125 C188.34 125 187.68 125 187 125 C186.5153125 123.91203125 186.030625 122.8240625 185.53125 121.703125 C170.27735123 88.02303947 146.12249779 71.56166225 112.41796875 58.65625 C111.66999023 58.37740967 110.92201172 58.09856934 110.15136719 57.8112793 C108.77960457 57.29398842 107.41458221 56.75818739 106.05957031 56.19848633 C100.31197665 53.86987215 94.45815758 52.80141722 88.375 51.6875 C64.54770077 47.07735519 46.7751279 42.09981775 29 25 C26.46876752 22.69178359 23.91821054 20.40691452 21.36328125 18.125 C19.80496235 16.72380085 18.26022071 15.3073323 16.73046875 13.875 C12.08588124 9.58018002 7.43241436 6.25693203 1.87109375 3.2265625 C1.25363281 2.82179688 0.63617188 2.41703125 0 2 C0 1.34 0 0.68 0 0 Z " fill="#09272D" transform="translate(284,591)"/>
<path d="M0 0 C0 3 0 3 -1.5546875 4.83984375 C-12.3213856 14.57337385 -24.70332086 22.25585028 -37.27734375 29.43359375 C-46.34863172 34.65251266 -54.69637571 40.64638812 -63 47 C-65.9608484 49.24330592 -68.9278226 51.47672605 -71.91015625 53.69140625 C-73.97850284 55.23678278 -76.02812263 56.80752927 -78.05859375 58.40234375 C-96.9997921 73.02484418 -119.27898096 79.69915074 -141.87084961 86.5222168 C-161.64328194 92.53499321 -178.56848855 98.73322423 -193 114 C-193.99 113.67 -194.98 113.34 -196 113 C-195.04882866 111.8274869 -194.08882991 110.66212985 -193.125 109.5 C-192.32449219 108.52546875 -192.32449219 108.52546875 -191.5078125 107.53125 C-190.76144531 106.77328125 -190.76144531 106.77328125 -190 106 C-189.34 106 -188.68 106 -188 106 C-188 105.34 -188 104.68 -188 104 C-186.05061544 102.53873392 -184.12216085 101.22840062 -182.0625 99.9375 C-181.43061768 99.53901855 -180.79873535 99.14053711 -180.14770508 98.72998047 C-161.68001748 87.26012345 -141.6998504 78.66277964 -121.42944336 70.92114258 C-103.32195021 63.99977439 -85.9257013 56.20047205 -70.37109375 44.5 C-57.62560985 34.92093068 -43.69302154 27.00513828 -29.27734375 20.23828125 C-18.16699488 14.95994275 -9.38981703 7.85279341 0 0 Z " fill="#0C2632" transform="translate(755,744)"/>
<path d="M0 0 C14.33305148 6.31570533 24.57857059 22.37816586 32.79296875 35.13330078 C45.9042545 55.41018 60.37691018 67.06501877 81.36309814 78.4793396 C90.26568582 83.33213281 98.40849923 88.25894742 106 95 C106.64839844 95.54011719 107.29679687 96.08023438 107.96484375 96.63671875 C116.93877776 104.71529427 124.77193796 117.76980807 129 129 C128.67 129.66 128.34 130.32 128 131 C127.64550781 130.37996094 127.29101562 129.75992188 126.92578125 129.12109375 C123.29591629 123.08303751 119.2613241 117.66040765 114.6875 112.3125 C114.17936768 111.70784912 113.67123535 111.10319824 113.14770508 110.48022461 C105.35787556 101.54700041 96.02909809 95.60376324 85.65005493 90.12991333 C62.46301855 77.8666037 43.26883722 64.2875249 30.5625 40.6875 C22.31978043 25.77941548 13.50257317 11.73281457 0 1 C0 0.67 0 0.34 0 0 Z " fill="#092A2D" transform="translate(344,459)"/>
<path d="M0 0 C0.99 0.495 0.99 0.495 2 1 C-17.20514052 19.54906429 -42.50173341 29.54839526 -68.0859375 35.203125 C-96.15789162 41.44133703 -120.22236407 56.28067057 -140.625 76.375 C-141.14690918 76.88740234 -141.66881836 77.39980469 -142.20654297 77.92773438 C-144.53162168 80.27384395 -145.94059408 81.82178223 -147 85 C-148.6436814 86.68933922 -150.3142876 88.35259924 -152 90 C-153.71161465 91.96673337 -155.35374567 93.97745897 -157 96 C-157 91.93221147 -154.99493665 89.72799993 -152.6875 86.5625 C-152.24108154 85.94431396 -151.79466309 85.32612793 -151.3347168 84.68920898 C-146.67162225 78.35696157 -141.45113838 72.6542864 -136 67 C-135.39671875 66.34515625 -134.7934375 65.6903125 -134.171875 65.015625 C-129.05099682 59.59644324 -123.03054876 55.34724578 -117 51 C-116.12730469 50.36707031 -115.25460937 49.73414063 -114.35546875 49.08203125 C-111.92753456 47.34997741 -109.47270581 45.66735645 -107 44 C-106.30519531 43.51015625 -105.61039063 43.0203125 -104.89453125 42.515625 C-92.49792509 34.35361174 -77.54343641 30.25831692 -63.3125 26.625 C-45.95748783 22.17192518 -29.40925304 15.70543681 -13.1875 8.125 C-12.4231665 7.76809082 -11.65883301 7.41118164 -10.87133789 7.04345703 C-6.82618872 5.08661785 -3.40730058 2.98557182 0 0 Z " fill="#06292C" transform="translate(734,617)"/>
<path d="M0 0 C0 9.16619041 -13.91995525 20.52343059 -20 27 C-23.03742357 30.30133086 -26.02966879 33.63827136 -29 37 C-29.69351563 37.75667969 -30.38703125 38.51335937 -31.1015625 39.29296875 C-37.15614841 46.21721337 -41.59063889 53.85004616 -46.18676758 61.78833008 C-53.73325974 74.80139778 -61.40046176 87.38431575 -74 96 C-74.90685547 96.64775391 -74.90685547 96.64775391 -75.83203125 97.30859375 C-81.76539424 101.318298 -88.30220331 103.57160099 -95 106 C-97.11025193 106.77598282 -99.21888164 107.55609717 -101.32617188 108.34008789 C-102.69710091 108.84974756 -104.06942865 109.35566626 -105.44335938 109.85717773 C-108.52773007 110.99819177 -111.42711988 112.22228176 -114.34765625 113.7421875 C-115.22292969 114.15726562 -116.09820313 114.57234375 -117 115 C-117.66 114.67 -118.32 114.34 -119 114 C-110.69476158 108.02729663 -102.34635524 102.57958697 -93.125 98.125 C-85.9116721 94.58357287 -78.47089384 90.50755821 -72.78125 84.7578125 C-71 83 -71 83 -69 83 C-68.73735352 82.41653809 -68.47470703 81.83307617 -68.20410156 81.23193359 C-66.9416564 78.89185377 -65.54093987 77.2329182 -63.734375 75.2890625 C-59.54780473 70.60677114 -56.25423387 65.52533313 -52.890625 60.23828125 C-44.53561131 47.36520309 -34.72330137 36.29822548 -23.75 25.625 C-21.49090813 23.41278525 -19.23627506 21.19609661 -16.984375 18.9765625 C-16.45316544 18.4536261 -15.92195587 17.9306897 -15.37464905 17.39190674 C-9.84973887 11.91960852 -4.78781007 6.12839689 0 0 Z " fill="#082C2D" transform="translate(674,327)"/>
<path d="M0 0 C0.99 0.495 0.99 0.495 2 1 C-1.54742572 4.64719707 -5.14364482 8.17841283 -9 11.5 C-15.51483125 17.15202251 -21.06544907 23.1905186 -26.48046875 29.90625 C-30.74878646 35.14734709 -35.1602969 40.26368073 -39.58935547 45.36914062 C-40.86024197 46.83842444 -42.12026244 48.31709016 -43.37890625 49.796875 C-48.72225606 55.95271986 -54.55474099 61.0244017 -61 66 C-61.8559375 66.68320312 -62.711875 67.36640625 -63.59375 68.0703125 C-70.11179734 73.14614821 -76.9444583 77.54966305 -83.9375 81.9375 C-97.69366889 90.58053123 -110.79851654 99.33719123 -120 113 C-120.33 112.34 -120.66 111.68 -121 111 C-109.51362828 94.53724381 -96.00801108 82.30751508 -79.9765625 70.46679688 C-61.045821 56.41839088 -43.96111463 41.31895392 -28 24 C-22.29452396 17.83274982 -16.01445583 12.71877346 -9.3671875 7.61328125 C-6.17286638 5.15703491 -3.08001669 2.59788642 0 0 Z " fill="#09292B" transform="translate(683,474)"/>
<path d="M0 0 C4.14334253 3.42276122 7.99408544 6.96658748 11.75 10.8125 C16.04378964 15.15841455 20.56974826 19.02348059 25.328125 22.84765625 C41.18537489 35.62155199 48.72253875 49.93079467 54.5625 69.25 C57.15899577 77.83903376 60.10925541 85.40804124 65 93 C65.39574219 93.61617188 65.79148437 94.23234375 66.19921875 94.8671875 C72.17347577 102.95863736 82.75276094 107.66558556 91.5 112.0625 C98.84422556 115.78350909 105.99727872 119.66548427 113 124 C112.01 124.495 112.01 124.495 111 125 C109.20678711 124.3984375 109.20678711 124.3984375 107.02734375 123.375 C105.81389282 122.81510376 105.81389282 122.81510376 104.57592773 122.24389648 C103.70524658 121.83341064 102.83456543 121.4229248 101.9375 121 C96.03567332 118.26197341 90.14368846 115.61351605 84.07421875 113.26831055 C69.88837202 107.75249286 58.92967085 99.69279164 52.25 85.625 C48.7311246 77.21029796 46.11937531 68.66879197 44 59.8125 C42.56390889 53.8791579 40.9646117 48.36153181 38 43 C37.61585938 42.30132812 37.23171875 41.60265625 36.8359375 40.8828125 C31.55118663 32.19851429 23.72574571 25.07604711 16 18.5625 C12.23086964 15.35235084 8.87055658 11.80563105 5.5 8.1875 C4.95859375 7.61136963 4.4171875 7.03523926 3.859375 6.44165039 C0 2.24346106 0 2.24346106 0 0 Z " fill="#0A3332" transform="translate(365,310)"/>
<path d="M0 0 C0.33 0 0.66 0 1 0 C1.04487549 0.74870361 1.08975098 1.49740723 1.13598633 2.26879883 C2.75256144 28.55877934 6.81748807 52.01371291 14.62597656 77.14550781 C14.91827148 78.09006836 15.21056641 79.03462891 15.51171875 80.0078125 C15.77428467 80.84973145 16.03685059 81.69165039 16.30737305 82.55908203 C19.58090052 94.09546824 19.1135582 106.10917692 14 117 C11.83455666 120.78267317 9.4225312 124.37838896 7 128 C0.88075063 137.37252118 -2.30751021 144.608543 -3 156 C-3.33 156 -3.66 156 -4 156 C-4.92850543 143.39295967 -1.15885498 134.6148634 4.0625 123.375 C5.04443589 121.2512782 6.02375425 119.12634348 7 117 C7.41894531 116.10925781 7.83789062 115.21851563 8.26953125 114.30078125 C13.80056379 101.22565485 11.26440247 89.88720478 7.1875 76.875 C-0.7845381 51.2895871 -0.37036908 26.56401024 0 0 Z " fill="#093334" transform="translate(517,236)"/>
<path d="M0 0 C0 9.16592575 -13.91963583 20.52366421 -20 27 C-25.94967747 33.45910058 -31.59470106 40.07768256 -37 47 C-37.33 46.34 -37.66 45.68 -38 45 C-39.65 45.99 -41.3 46.98 -43 48 C-38.75707804 38.33847297 -28.76471944 30.65823933 -21.375 23.375 C-13.805144 15.9132848 -6.54933361 8.38314702 0 0 Z M-44 48 C-44 48.99 -44 49.98 -44 51 C-44.99 51.495 -44.99 51.495 -46 52 C-45.34 50.68 -44.68 49.36 -44 48 Z " fill="#0C3031" transform="translate(674,327)"/>
<path d="M0 0 C0 3 0 3 -1.5546875 4.83984375 C-13.30527604 15.46285056 -26.87043191 23.91025205 -41 31 C-41.33 29.68 -41.66 28.36 -42 27 C-36.84299486 24.03949705 -31.62823969 21.35122164 -26.25 18.8125 C-16.39219445 14.04177251 -8.3567782 6.9888532 0 0 Z " fill="#143040" transform="translate(755,744)"/>
<path d="M0 0 C0.66 0.33 1.32 0.66 2 1 C0.3380689 3.00409339 -1.32936893 5.00317712 -3 7 C-3.45761719 7.55300781 -3.91523437 8.10601563 -4.38671875 8.67578125 C-7.82300241 12.77107822 -11.49177451 16.51597573 -15.36328125 20.203125 C-17.22680736 22.0053327 -17.22680736 22.0053327 -18 25 C-19.6436814 26.68933922 -21.3142876 28.35259924 -23 30 C-24.71161465 31.96673337 -26.35374567 33.97745897 -28 36 C-28 31.93221147 -25.99493665 29.72799993 -23.6875 26.5625 C-23.01787231 25.63522095 -23.01787231 25.63522095 -22.3347168 24.68920898 C-15.72516053 15.71376463 -7.95824334 7.78139349 0 0 Z " fill="#0D2C34" transform="translate(605,677)"/>
<path d="M0 0 C4.14334253 3.42276122 7.99408544 6.96658748 11.75 10.8125 C16.18213256 15.31271448 20.88318612 19.28833692 25.84765625 23.1875 C28 25 28 25 29 27 C28.01 27.33 27.02 27.66 26 28 C4.89251832 8.49548016 4.89251832 8.49548016 0 2 C0 1.34 0 0.68 0 0 Z " fill="#0D3435" transform="translate(365,310)"/>
<path d="M0 0 C9.50533396 4.18842341 21.90076529 16.44254517 26 26 C25.01 26.66 24.02 27.32 23 28 C22.61070312 27.33355469 22.22140625 26.66710937 21.8203125 25.98046875 C15.95021066 16.30967885 8.88728818 8.01628014 0 1 C0 0.67 0 0.34 0 0 Z " fill="#103738" transform="translate(344,459)"/>
<path d="M0 0 C11.54413452 1.60801874 22.36092714 5.32153591 33 10 C32.67 10.66 32.34 11.32 32 12 C30.2365625 11.4121875 30.2365625 11.4121875 28.4375 10.8125 C27.6228125 10.54179688 26.808125 10.27109375 25.96875 9.9921875 C23.75838106 9.25345893 21.55042105 8.50751484 19.34375 7.7578125 C12.94792514 5.5915107 6.59678459 3.48091083 0 2 C0 1.34 0 0.68 0 0 Z " fill="#1F3E55" transform="translate(273,746)"/>
<path d="M0 0 C0.66 0.33 1.32 0.66 2 1 C0.35 2.98 -1.3 4.96 -3 7 C-3.66 6.67 -4.32 6.34 -5 6 C-3.35 4.02 -1.7 2.04 0 0 Z M-6 7 C-6 10.54241999 -6.45400919 10.84418107 -8.81640625 13.29296875 C-9.41308105 13.92001709 -10.00975586 14.54706543 -10.62451172 15.19311523 C-11.26404785 15.85126221 -11.90358398 16.50940918 -12.5625 17.1875 C-13.84855287 18.53560355 -15.13371802 19.88455455 -16.41796875 21.234375 C-17.03720215 21.88212891 -17.65643555 22.52988281 -18.29443359 23.19726562 C-21.30018695 26.37426002 -24.16828741 29.66794721 -27 33 C-27 29.09628659 -25.88498909 28.43752382 -23.25 25.625 C-22.03763672 24.31789063 -22.03763672 24.31789063 -20.80078125 22.984375 C-20.35557129 22.51064453 -19.91036133 22.03691406 -19.45166016 21.54882812 C-17.86804052 19.85920771 -16.29826672 18.15743308 -14.73046875 16.453125 C-11.82643369 13.29637893 -8.91490217 10.14671334 -6 7 Z " fill="#2AA48E" transform="translate(666,340)"/>
<path d="M0 0 C0.99 0.33 1.98 0.66 3 1 C2.28070312 1.56589844 1.56140625 2.13179687 0.8203125 2.71484375 C-1.90574556 4.92363041 -4.52216072 7.21039294 -7.125 9.5625 C-7.97320313 10.32691406 -8.82140625 11.09132813 -9.6953125 11.87890625 C-11.5097857 13.54883667 -13.27669423 15.2372722 -15 17 C-15.99 16.67 -16.98 16.34 -18 16 C-17.04882866 14.8274869 -16.08882991 13.66212985 -15.125 12.5 C-14.59132813 11.8503125 -14.05765625 11.200625 -13.5078125 10.53125 C-12.76144531 9.77328125 -12.76144531 9.77328125 -12 9 C-11.34 9 -10.68 9 -10 9 C-10 8.34 -10 7.68 -10 7 C-7.91796875 5.23828125 -7.91796875 5.23828125 -5.1875 3.3125 C-4.29417969 2.66925781 -3.40085937 2.02601563 -2.48046875 1.36328125 C-1.66191406 0.91339844 -0.84335937 0.46351563 0 0 Z " fill="#182845" transform="translate(577,841)"/>
<path d="M0 0 C0.66 0.33 1.32 0.66 2 1 C1.67 1.33 1.34 1.66 1 2 C1.66 2.66 2.32 3.32 3 4 C0.23174812 5.17314026 -2.53928486 6.33870215 -5.3125 7.5 C-6.09818359 7.83386719 -6.88386719 8.16773438 -7.69335938 8.51171875 C-8.45068359 8.82753906 -9.20800781 9.14335938 -9.98828125 9.46875 C-10.68477783 9.76201172 -11.38127441 10.05527344 -12.09887695 10.35742188 C-14 11 -14 11 -17 11 C-17 10.34 -17 9.68 -17 9 C-14.21526125 7.46621464 -11.42121662 5.9502442 -8.625 4.4375 C-7.8309375 3.99986328 -7.036875 3.56222656 -6.21875 3.11132812 C-5.45820312 2.70205078 -4.69765625 2.29277344 -3.9140625 1.87109375 C-2.8614624 1.29766235 -2.8614624 1.29766235 -1.78759766 0.71264648 C-1.19769043 0.47747314 -0.6077832 0.2422998 0 0 Z " fill="#12273D" transform="translate(596,831)"/>
<path d="M0 0 C3.5316242 2.35441613 4.6757742 4.85962683 6.4375 8.5625 C6.89491577 9.50270996 6.89491577 9.50270996 7.36157227 10.46191406 C14 24.18638319 14 24.18638319 14 27 C13.34 27 12.68 27 12 27 C11.48050781 25.87722656 10.96101563 24.75445313 10.42578125 23.59765625 C6.85283727 15.91599813 3.26431968 8.32929944 -1 1 C-0.67 0.67 -0.34 0.34 0 0 Z " fill="#183A48" transform="translate(459,689)"/>
<path d="M0 0 C4.0366596 0.60182925 7.06292431 1.90261098 10.625 3.875 C11.56601562 4.38804687 12.50703125 4.90109375 13.4765625 5.4296875 C15.70583539 6.816944 17.39050777 7.9368254 19 10 C19 10.99 19 11.98 19 13 C15.6868029 11.42154289 12.6055035 9.57873709 9.5 7.625 C8.5615625 7.03976562 7.623125 6.45453125 6.65625 5.8515625 C4.13170628 4.09180703 2.095604 2.24387787 0 0 Z " fill="#183143" transform="translate(305,757)"/>
<path d="M0 0 C0 3 0 3 -1.80078125 5.015625 C-7.8358129 10.38426902 -14.0471853 14.88911526 -21 19 C-21.66 18.34 -22.32 17.68 -23 17 C-22.01773438 16.41605469 -22.01773438 16.41605469 -21.015625 15.8203125 C-13.41021316 11.15823801 -6.71762341 5.82662973 0 0 Z " fill="#214059" transform="translate(755,744)"/>
<path d="M0 0 C3.45599283 1.06982945 6.38972729 2.65401516 9.55078125 4.41015625 C10.44700195 4.90418945 10.44700195 4.90418945 11.36132812 5.40820312 C12.82362123 6.21538892 14.28142115 7.03070542 15.73828125 7.84765625 C15.73828125 8.50765625 15.73828125 9.16765625 15.73828125 9.84765625 C8.55611692 7.57330421 1.66246105 4.81181444 -5.26171875 1.84765625 C-2.26171875 -0.15234375 -2.26171875 -0.15234375 0 0 Z " fill="#13253D" transform="translate(465.26171875,841.15234375)"/>
<path d="M0 0 C0.66 0.66 1.32 1.32 2 2 C1.38511719 2.94746094 1.38511719 2.94746094 0.7578125 3.9140625 C-3.79033041 11.46528541 -5.26039479 18.26500742 -6 27 C-6.33 27 -6.66 27 -7 27 C-7.70711308 17.3989757 -6.46956395 9.6140687 -2 1 C-1.34 0.67 -0.68 0.34 0 0 Z " fill="#0D3D3C" transform="translate(520,365)"/>
<path d="M0 0 C1.59147366 5.31696881 1.18559194 10.78345855 -1.4375 15.6875 C-1.953125 16.450625 -2.46875 17.21375 -3 18 C-3.71143088 19.98451771 -4.38991336 21.98202112 -5 24 C-6.10850617 20.6744815 -5.88269525 19.6706002 -5.0390625 16.3671875 C-4.81476563 15.47902344 -4.59046875 14.59085938 -4.359375 13.67578125 C-4.11703125 12.75152344 -3.8746875 11.82726562 -3.625 10.875 C-3.39039063 9.94300781 -3.15578125 9.01101562 -2.9140625 8.05078125 C-1.14485996 1.14485996 -1.14485996 1.14485996 0 0 Z " fill="#30BF9E" transform="translate(478,166)"/>
<path d="M0 0 C0.66 0.33 1.32 0.66 2 1 C-11.31412104 13 -11.31412104 13 -15 13 C-15 11.68 -15 10.36 -15 9 C-14.08476563 8.51789062 -13.16953125 8.03578125 -12.2265625 7.5390625 C-11.0259405 6.90123206 -9.8254252 6.26320074 -8.625 5.625 C-8.02171875 5.30789063 -7.4184375 4.99078125 -6.796875 4.6640625 C-4.21449618 3.2867938 -2.08169419 2.08169419 0 0 Z " fill="#0C3437" transform="translate(734,617)"/>
<path d="M0 0 C0 7.57395336 -8.73362942 14.68978552 -13.74609375 19.76953125 C-14.36677734 20.37861328 -14.36677734 20.37861328 -15 21 C-13.50427975 16.48748807 -10.97750739 13.05977125 -8.0625 9.375 C-7.39831055 8.51648438 -7.39831055 8.51648438 -6.72070312 7.640625 C-4.61489212 4.94167199 -2.50896606 2.33507732 0 0 Z " fill="#0E333B" transform="translate(577,566)"/>
<path d="M0 0 C4.28247217 1.46692417 7.47018391 3.64102492 11.0625 6.375 C12.08472656 7.14585937 13.10695313 7.91671875 14.16015625 8.7109375 C16.61605966 10.69052402 18.82775455 12.7183609 21 15 C16.92038502 15 15.80223135 13.39299362 12.75 10.75 C8.64973836 7.29227604 4.76695372 4.43644301 0 2 C0 1.34 0 0.68 0 0 Z " fill="#1C4E52" transform="translate(284,591)"/>
<path d="M0 0 C0.33 0 0.66 0 1 0 C1.02719556 2.37507855 1.04693247 4.74983964 1.0625 7.125 C1.07087891 7.79015625 1.07925781 8.4553125 1.08789062 9.140625 C1.10782292 13.20681354 0.78890161 17.0120092 0 21 C-0.33 21 -0.66 21 -1 21 C-1.1968121 18.95920995 -1.38202831 16.91729993 -1.5625 14.875 C-1.66691406 13.73804688 -1.77132812 12.60109375 -1.87890625 11.4296875 C-2.02262144 7.35930247 -1.84049951 3.68099902 0 0 Z " fill="#2CAB90" transform="translate(572,271)"/>
<path d="M0 0 C0.66 0 1.32 0 2 0 C2.02698422 2.43757413 2.04683099 4.87484915 2.0625 7.3125 C2.07087891 8.00279297 2.07925781 8.69308594 2.08789062 9.40429688 C2.10307906 12.5483025 2.00193327 14.99420019 1 18 C0.34 18 -0.32 18 -1 18 C-0.505 9.09 -0.505 9.09 0 0 Z " fill="#26A389" transform="translate(516,207)"/>
<path d="M0 0 C3.6020463 1.55447938 6.16870103 3.747448 9.0625 6.375 C10.34833984 7.53128906 10.34833984 7.53128906 11.66015625 8.7109375 C13.69931924 10.70584486 15.37416711 12.66519735 17 15 C14 15 14 15 12.16796875 13.20703125 C11.51441406 12.41683594 10.86085938 11.62664062 10.1875 10.8125 C7.0161641 7.09013716 3.80721102 4.04576882 0 1 C0 0.67 0 0.34 0 0 Z " fill="#174746" transform="translate(344,459)"/>
<path d="M0 0 C3.67420866 0.30618405 4.78135513 0.75771784 7.3125 3.5625 C8.1478125 4.7690625 8.1478125 4.7690625 9 6 C8.01 6.66 7.02 7.32 6 8 C4.99403703 7.0479279 3.99538437 6.08812654 3 5.125 C2.443125 4.59132813 1.88625 4.05765625 1.3125 3.5078125 C0 2 0 2 0 0 Z " fill="#0E3A39" transform="translate(392,337)"/>
<path d="M0 0 C0.33 0.66 0.66 1.32 1 2 C0.0625 4.625 0.0625 4.625 -1 7 C-0.34 7 0.32 7 1 7 C0.67 8.65 0.34 10.3 0 12 C-0.33 11.34 -0.66 10.68 -1 10 C-2.98 10.99 -2.98 10.99 -5 12 C-4.42365861 7.24518354 -2.44931479 4.02951788 0 0 Z " fill="#31C6A5" transform="translate(495,125)"/>
<path d="M0 0 C0 4.03381023 -1.59573562 5.49433637 -4 8.6875 C-4.7425 9.68136719 -5.485 10.67523438 -6.25 11.69921875 C-7.11625 12.83810547 -7.11625 12.83810547 -8 14 C-8.66 13.67 -9.32 13.34 -10 13 C-8.48446596 9.52224821 -6.4226544 7.0442016 -3.875 4.25 C-3.15054688 3.45078125 -2.42609375 2.6515625 -1.6796875 1.828125 C-0.84824219 0.92320312 -0.84824219 0.92320312 0 0 Z " fill="#133D3F" transform="translate(674,327)"/>
<path d="M0 0 C0.99 0 1.98 0 3 0 C3 2 3 2 0.8125 4.25 C-0.5796875 5.61125 -0.5796875 5.61125 -2 7 C-3.71199207 8.96647738 -5.35370527 10.97740933 -7 13 C-7 9.21594911 -5.8321967 7.88967353 -3.6875 4.8125 C-2.76517578 3.46091797 -2.76517578 3.46091797 -1.82421875 2.08203125 C-0.92123047 1.05142578 -0.92123047 1.05142578 0 0 Z " fill="#1A404F" transform="translate(584,700)"/>
<path d="M0 0 C0.66 0.33 1.32 0.66 2 1 C-5.76965554 8.96607941 -5.76965554 8.96607941 -9 11 C-9.66 11 -10.32 11 -11 11 C-9.52202738 7.32943063 -7.52384523 5.58914217 -4.375 3.25 C-3.55773437 2.63640625 -2.74046875 2.0228125 -1.8984375 1.390625 C-0.95871094 0.70226562 -0.95871094 0.70226562 0 0 Z " fill="#123B3E" transform="translate(683,474)"/>
<path d="M0 0 C4.88049925 3.9419417 9.0580583 8.11950075 13 13 C10 13 10 13 7.51953125 10.6640625 C6.60862148 9.65873726 5.70656694 8.64533316 4.8125 7.625 C4.34908203 7.11710937 3.88566406 6.60921875 3.40820312 6.0859375 C0 2.27115933 0 2.27115933 0 0 Z " fill="#195750" transform="translate(365,310)"/>
<path d="M0 0 C2.95183101 2.95183101 3.08663988 5.95511947 4 10 C1.525 9.01 1.525 9.01 -1 8 C-1.33 8.66 -1.66 9.32 -2 10 C-2 8.02 -2 6.04 -2 4 C-1.34 4 -0.68 4 0 4 C0 2.68 0 1.36 0 0 Z " fill="#32CDA5" transform="translate(546,136)"/>
<path d="M0 0 C1.485 0.99 1.485 0.99 3 2 C3.66 1.34 4.32 0.68 5 0 C5.6875 2.25 5.6875 2.25 6 5 C4.5625 7.3125 4.5625 7.3125 3 9 C2.01 6.03 1.02 3.06 0 0 Z " fill="#33B59C" transform="translate(474,327)"/>
<path d="M0 0 C4.06225548 0.57823096 6.84762346 1.89117737 10.3125 4.0625 C11.19550781 4.61035156 12.07851563 5.15820312 12.98828125 5.72265625 C13.65214844 6.14417969 14.31601562 6.56570313 15 7 C14.01 7.495 14.01 7.495 13 8 C10.75689987 7.10333658 8.55245679 6.10853317 6.375 5.0625 C5.18648438 4.49660156 3.99796875 3.93070312 2.7734375 3.34765625 C1.85820312 2.90292969 0.94296875 2.45820313 0 2 C0 1.34 0 0.68 0 0 Z " fill="#133A39" transform="translate(463,427)"/>
<path d="M0 0 C0.99 0.66 1.98 1.32 3 2 C1.35 3.65 -0.3 5.3 -2 7 C-2.99 6.67 -3.98 6.34 -5 6 C-3.35 4.02 -1.7 2.04 0 0 Z " fill="#1F2C52" transform="translate(564,851)"/>
<path d="M0 0 C0.66 0.33 1.32 0.66 2 1 C-2.455 4.465 -2.455 4.465 -7 8 C-7.99 7.34 -8.98 6.68 -10 6 C-8.3811004 4.96951963 -6.75467511 3.95085322 -5.125 2.9375 C-4.22007812 2.36902344 -3.31515625 1.80054688 -2.3828125 1.21484375 C-1.20332031 0.61349609 -1.20332031 0.61349609 0 0 Z " fill="#1B384C" transform="translate(742,755)"/>
<path d="M0 0 C0.66 0.33 1.32 0.66 2 1 C-0.97 3.97 -3.94 6.94 -7 10 C-7.33 9.01 -7.66 8.02 -8 7 C-5.36 4.69 -2.72 2.38 0 0 Z " fill="#0F323C" transform="translate(559,735)"/>
<path d="M0 0 C1.18224668 3.54674003 0.89329634 5.97522995 0.5625 9.6875 C0.40974609 11.45673828 0.40974609 11.45673828 0.25390625 13.26171875 C0.12822266 14.61716797 0.12822266 14.61716797 0 16 C-0.66 15.67 -1.32 15.34 -2 15 C-2 10.38 -2 5.76 -2 1 C-1.34 0.67 -0.68 0.34 0 0 Z " fill="#2A9988" transform="translate(524,414)"/>
<path d="M0 0 C3.81684226 1.55500981 6.19195732 4.03595495 9 7 C8.01 7.33 7.02 7.66 6 8 C4.99403703 7.0479279 3.99538437 6.08812654 3 5.125 C2.443125 4.59132813 1.88625 4.05765625 1.3125 3.5078125 C0 2 0 2 0 0 Z " fill="#124442" transform="translate(377,323)"/>
<path d="M0 0 C3.13439441 1.07229283 6.06195683 2.47657021 9 4 C9 4.66 9 5.32 9 6 C7.53932801 5.54917531 6.08151968 5.08906463 4.625 4.625 C3.81289063 4.36976563 3.00078125 4.11453125 2.1640625 3.8515625 C0 3 0 3 -2 1 C-1.34 0.67 -0.68 0.34 0 0 Z " fill="#192A47" transform="translate(472,845)"/>
<path d="M0 0 C2.39763185 2.39763185 2.34280586 3.33273498 2.625 6.625 C2.69976563 7.44226563 2.77453125 8.25953125 2.8515625 9.1015625 C2.90054688 9.72804687 2.94953125 10.35453125 3 11 C0.9375 9.4375 0.9375 9.4375 -1 7 C-0.75 3.25 -0.75 3.25 0 0 Z " fill="#2CBB97" transform="translate(563,185)"/>
<path d="M0 0 C2 1 2 1 2.8515625 3.28515625 C3.10679687 4.20167969 3.36203125 5.11820313 3.625 6.0625 C3.88539063 6.98160156 4.14578125 7.90070312 4.4140625 8.84765625 C4.60742188 9.55792969 4.80078125 10.26820313 5 11 C4.34 11 3.68 11 3 11 C1.68 7.7 0.36 4.4 -1 1 C-0.67 0.67 -0.34 0.34 0 0 Z " fill="#204A5C" transform="translate(468,705)"/>
<path d="M0 0 C3.36591866 1.44253657 5.51047079 3.33264727 8 6 C7.34 6.66 6.68 7.32 6 8 C4.99403703 7.0479279 3.99538437 6.08812654 3 5.125 C2.443125 4.59132813 1.88625 4.05765625 1.3125 3.5078125 C0 2 0 2 0 0 Z " fill="#14393F" transform="translate(304,606)"/>
<path d="M0 0 C0.66 0.33 1.32 0.66 2 1 C1.67 2.65 1.34 4.3 1 6 C0.34 6 -0.32 6 -1 6 C-1.33 6.99 -1.66 7.98 -2 9 C-3 6 -3 6 -1.5625 2.8125 C-1.046875 1.884375 -0.53125 0.95625 0 0 Z " fill="#2FBE9C" transform="translate(485,147)"/>
<path d="M0 0 C0.66 0.33 1.32 0.66 2 1 C-1.96 4.465 -1.96 4.465 -6 8 C-6.99 7.34 -7.98 6.68 -9 6 C-6.03 4.02 -3.06 2.04 0 0 Z " fill="#123C40" transform="translate(734,617)"/>
<path d="M0 0 C1.32 0.66 2.64 1.32 4 2 C4 2.66 4 3.32 4 4 C2.02 4.33 0.04 4.66 -2 5 C-1.34 3.35 -0.68 1.7 0 0 Z " fill="#33C8AB" transform="translate(337,235)"/>
<path d="M0 0 C0.66 0.33 1.32 0.66 2 1 C2 2.98 2 4.96 2 7 C1.34 7 0.68 7 0 7 C-0.33 7.66 -0.66 8.32 -1 9 C-1.125 2.25 -1.125 2.25 0 0 Z " fill="#30BD9C" transform="translate(468,203)"/>
<path d="M0 0 C1 2 1 2 0.3125 5 C-1 8 -1 8 -3.125 9.375 C-3.74375 9.58125 -4.3625 9.7875 -5 10 C-3.66511872 6.40608886 -2.03977277 3.24509304 0 0 Z " fill="#2B9E8A" transform="translate(630,384)"/>
<path d="M0 0 C0.66 0 1.32 0 2 0 C2 0.99 2 1.98 2 3 C2.66 3.33 3.32 3.66 4 4 C4 4.99 4 5.98 4 7 C3.01 7 2.02 7 1 7 C-0.0625 5.1875 -0.0625 5.1875 -1 3 C-0.67 2.01 -0.34 1.02 0 0 Z " fill="#32C8A5" transform="translate(500,112)"/>
</svg>
