<?xml version="1.0" encoding="UTF-8"?>
<svg version="1.1" xmlns="http://www.w3.org/2000/svg" width="1024" height="1024">
<path d="M0 0 C337.92 0 675.84 0 1024 0 C1024 337.92 1024 675.84 1024 1024 C686.08 1024 348.16 1024 0 1024 C0 686.08 0 348.16 0 0 Z " fill="#09272C" transform="translate(0,0)"/>
<path d="M0 0 C3 1 3 1 4.25512695 3.21459961 C4.66206787 4.18405518 5.06900879 5.15351074 5.48828125 6.15234375 C6.17277344 7.77015747 6.17277344 7.77015747 6.87109375 9.4206543 C7.34675781 10.58121338 7.82242188 11.74177246 8.3125 12.9375 C9.04726563 14.70057495 9.04726563 14.70057495 9.796875 16.49926758 C13.15476114 24.65962117 16.15826407 32.87028096 18.78125 41.29296875 C19.99217385 44.97619546 21.46497581 48.44135996 23 52 C24.1963665 55.19089746 25.32083464 58.40545549 26.4375 61.625 C26.74606934 62.51453369 27.05463867 63.40406738 27.37255859 64.32055664 C40.2291303 101.5951463 47.83566114 147.6788596 34 186 C33.566875 187.20914063 33.13375 188.41828125 32.6875 189.6640625 C29.72806244 197.57747523 26.0543869 205.09127289 22.21875 212.609375 C19.64922581 217.65965799 17.19351157 222.76279759 14.75 227.875 C14.33782227 228.7304541 13.92564453 229.5859082 13.50097656 230.46728516 C7.76440246 242.49641115 3.75036215 253.20152606 3.5859375 266.625 C3.56657135 267.61250244 3.5472052 268.60000488 3.5272522 269.61743164 C3.46788341 272.74486893 3.42124287 275.87234389 3.375 279 C3.33678088 281.13152571 3.2977269 283.26303662 3.2578125 285.39453125 C3.16221749 290.59622199 3.07704743 295.79800322 3 301 C11.98535706 292.22615934 16.23707728 281.8444541 19.46191406 269.97119141 C20.30451828 266.8844462 21.22456077 263.82029466 22.125 260.75 C23.31953109 256.53820711 24.41997561 252.32018585 25.4375 248.0625 C34.17438501 213.20644566 53.30979723 184.55590717 78 159 C78.59482178 158.37383789 79.18964355 157.74767578 79.80249023 157.10253906 C84.65479187 152.09877272 89.82197401 147.86683977 95.4375 143.75 C96.30858398 143.10377686 97.17966797 142.45755371 98.07714844 141.79174805 C104.26642892 137.21958313 110.53447912 132.7653868 116.83666992 128.35083008 C129.60979983 119.38688649 141.96043284 109.99005999 153.59277344 99.57373047 C157.67237443 96 157.67237443 96 161 96 C161.99604879 101.01382988 162.19075815 105.84032612 162.23828125 110.9296875 C162.2480751 111.78871674 162.25786896 112.64774597 162.26795959 113.5328064 C162.43517172 132.0152095 162.43158388 149.94096297 158 168 C157.77505859 168.94166016 157.55011719 169.88332031 157.31835938 170.85351562 C148.52039909 206.99059216 131.30922306 236.55121245 99.14990234 256.72314453 C83.36070066 266.10056047 66.20052313 270.97516674 48.36157227 274.77001953 C33.59539085 277.94356534 33.59539085 277.94356534 22 287 C16.73700826 295.36311016 13.34815665 304.19496918 10.6875 313.6875 C10.34223267 314.90276367 10.34223267 314.90276367 9.98999023 316.14257812 C4.76903711 336.19165079 4.48120998 356.53846968 4.33044434 377.10992432 C4.30012178 380.83186281 4.2537769 384.55360314 4.20898438 388.27539062 C4.12409125 395.51682649 4.05625491 402.7582788 4 410 C4.66 410 5.32 410 6 410 C6.27328125 409.12472656 6.5465625 408.24945312 6.828125 407.34765625 C7.92824549 404.20497873 9.24852301 401.40412792 10.75 398.4375 C16.32243586 386.48110849 19.17308728 373.5054812 22.24902344 360.72851562 C28.76456747 333.80211911 40.70557096 309.16511627 60 289 C60.91652344 287.98873047 60.91652344 287.98873047 61.8515625 286.95703125 C77.52104158 270.25403334 99.16620793 260.95917743 120.75 254.75 C146.27809356 247.39697761 168.49297495 238.27677884 190.0546875 222.80859375 C190.94414063 222.17050781 191.83359375 221.53242188 192.75 220.875 C193.50796875 220.31554687 194.2659375 219.75609375 195.046875 219.1796875 C197 218 197 218 200 218 C200.93274222 245.11170732 185.42294003 271.52208034 172 294 C171.22459231 295.32513011 170.44977351 296.65060516 169.67578125 297.9765625 C165.61424586 304.79100498 161.11278495 310.94345725 156 317 C155.17757813 318.00675781 154.35515625 319.01351563 153.5078125 320.05078125 C129.23374088 349.58900168 98.88265695 369.37900588 61.5625 378.5625 C59.18990611 379.16588843 56.81750789 379.77004681 54.4453125 380.375 C51.48635814 381.12263312 48.5271569 381.868898 45.56542969 382.60546875 C35.83012221 385.04502767 26.44955493 387.64124905 20.6875 396.4375 C17.21603106 402.94895586 15.09442243 409.95580944 13 417 C12.72414063 417.92683594 12.44828125 418.85367187 12.1640625 419.80859375 C10.57123014 425.43488869 9.22738821 431.12456791 7.875 436.8125 C7.70411865 437.53034668 7.5332373 438.24819336 7.35717773 438.98779297 C7.19548096 439.6788916 7.03378418 440.36999023 6.8671875 441.08203125 C6.72394043 441.69280518 6.58069336 442.3035791 6.43310547 442.93286133 C5.45490499 447.60164567 4.87567206 452.04705252 4.88647461 456.82177734 C4.88655014 457.94248627 4.88662567 459.06319519 4.88670349 460.21786499 C4.89444542 462.00881088 4.89444542 462.00881088 4.90234375 463.8359375 C4.9037587 465.07042633 4.90517365 466.30491516 4.90663147 467.57681274 C4.91221728 471.50956675 4.92476725 475.44226328 4.9375 479.375 C4.94308088 482.04557208 4.94707942 484.71614363 4.95117188 487.38671875 C4.96218208 493.92449869 4.97890615 500.46224524 5 507 C10.3388741 500.4423083 14.41578772 493.83688634 17.4375 485.9375 C17.88125977 484.79172485 17.88125977 484.79172485 18.33398438 483.62280273 C21.02096445 476.42563742 22.87742631 469.07418784 24.73022461 461.62768555 C30.51929604 438.73358258 39.91484362 421.30241146 56 404 C56.81017578 403.10861328 56.81017578 403.10861328 57.63671875 402.19921875 C72.88893028 386.1017965 93.49587925 374.14214279 113 364 C114.03326416 363.45883545 114.03326416 363.45883545 115.08740234 362.90673828 C131.20983194 354.57470354 148.33211277 349.61566874 166.01245117 345.77490234 C174.10526915 344.01682492 182.05014341 341.8727239 190.00390625 339.57324219 C191.86370192 339.03914235 193.72856235 338.52276648 195.59375 338.0078125 C209.36695842 334.18543126 222.73873318 330.007937 235.51879883 323.54003906 C239.02095356 321.79130756 241.00240774 321 245 321 C244.38611819 326.57504913 243.44731939 331.92696941 242.125 337.375 C241.94356445 338.12322021 241.76212891 338.87144043 241.57519531 339.64233398 C241.2144797 341.11472406 240.85067514 342.58636172 240.48339844 344.05712891 C240.09396154 345.62235052 239.72024671 347.19147936 239.3515625 348.76171875 C233.79988672 369.9950761 218.5828524 389.50788844 206 407 C205.48002441 407.72928711 204.96004883 408.45857422 204.42431641 409.20996094 C176.08608283 448.82254551 135.37064287 472.37788029 87.30712891 480.46972656 C83.11767445 481.14147432 78.92442836 481.78676175 74.73046875 482.4296875 C73.89618851 482.55844269 73.06190826 482.68719788 72.2023468 482.81985474 C67.98714917 483.46966912 63.7709232 484.10733156 59.55004883 484.71923828 C40.74303346 487.28881885 40.74303346 487.28881885 25 497 C21.41869394 501.99365212 18.72668697 507.51134545 16 513 C15.49243164 513.98709961 15.49243164 513.98709961 14.97460938 514.99414062 C7.81965563 528.92301507 5.55299734 542.02251473 5.48828125 557.58203125 C5.47139033 559.13288247 5.45323436 560.68372037 5.43388367 562.23454285 C5.38685551 566.27031283 5.35674372 570.30602882 5.33044434 574.34197998 C5.30039741 578.47874618 5.25395163 582.61532697 5.20898438 586.75195312 C5.12348988 594.83454327 5.05590861 602.91715124 5 611 C7.75629204 608.40326312 8.69017309 606.54440073 9.75 602.875 C10.08902344 601.72386719 10.42804688 600.57273437 10.77734375 599.38671875 C11.73912003 595.98107137 12.65387215 592.56366708 13.56640625 589.14453125 C19.84670748 565.79083626 28.55956957 545.76121375 44 527 C44.70769531 526.12601563 45.41539062 525.25203125 46.14453125 524.3515625 C55.49634424 513.35147079 67.4783324 505.02994127 80 498 C80.66531738 497.62552734 81.33063477 497.25105469 82.01611328 496.86523438 C101.98566269 485.75032234 123.12541285 476.14136487 145.1875 470.0625 C147.04200157 469.53894524 148.89616634 469.01419611 150.75 468.48828125 C151.64847656 468.23385254 152.54695313 467.97942383 153.47265625 467.71728516 C183.55311045 459.1801547 213.76152546 447.68511456 237.99243164 427.32592773 C240 426 240 426 244 426 C243.53751913 434.0565364 242.12958349 441.53724972 240 449.3125 C239.69167236 450.44042969 239.38334473 451.56835938 239.06567383 452.73046875 C229.55496209 486.34489793 210.628713 520.91375584 185 545 C184.21625 545.804375 183.4325 546.60875 182.625 547.4375 C156.89376857 572.55608306 120.83377793 591.13299768 84.97607422 595.74414062 C83.05426698 595.99297359 81.13820034 596.28494969 79.22265625 596.578125 C71.52648789 597.66590586 63.86594245 598.0696616 56.1015625 598.23828125 C55.30363785 598.25622742 54.5057132 598.27417358 53.68360901 598.29266357 C49.62322507 598.37989705 45.56383739 598.44598634 41.50268555 598.48291016 C39.97704614 598.507856 38.45141114 598.53307291 36.92578125 598.55859375 C36.2315506 598.55861893 35.53731995 598.5586441 34.822052 598.55867004 C28.98518 598.67694367 24.45009651 600.08901238 19.81640625 603.703125 C17.34278347 606.8310609 15.66511119 610.16828585 13.9375 613.75 C13.59912109 614.42804687 13.26074219 615.10609375 12.91210938 615.8046875 C9.08031611 623.60168269 6.57784677 630.25113783 6.3125 639 C6.27833984 639.77472656 6.24417969 640.54945313 6.20898438 641.34765625 C6.12759234 643.23130054 6.06209885 645.115621 6 647 C1.71 647 -2.58 647 -7 647 C-7.03738281 645.98421875 -7.07476562 644.9684375 -7.11328125 643.921875 C-7.64571231 631.83967212 -9.52790931 621.5379008 -14.8125 610.5625 C-15.2911853 609.55026367 -15.2911853 609.55026367 -15.77954102 608.51757812 C-18.57867481 603.00076499 -21.78897761 599.39853311 -27.60205078 596.86669922 C-31.99100672 595.74722849 -35.9765831 595.84429626 -40.48046875 595.98046875 C-42.37326355 596.01496893 -44.2660881 596.04786603 -46.15893555 596.0793457 C-47.14389008 596.09808746 -48.1288446 596.11682922 -49.14364624 596.13613892 C-67.73882866 596.4499085 -84.90138109 595.65177481 -103 591 C-104.65208152 590.61086418 -106.30441232 590.22278462 -107.95703125 589.8359375 C-119.11421387 587.09574192 -129.57773211 582.78337092 -140 578 C-140.73057617 577.66564941 -141.46115234 577.33129883 -142.21386719 576.98681641 C-151.17702432 572.83043175 -159.28141787 568.23723808 -167 562 C-167.51127441 561.58878906 -168.02254883 561.17757812 -168.54931641 560.75390625 C-178.49142652 552.70709482 -187.79104104 544.02082663 -196.078125 534.25390625 C-197.58307716 532.48895219 -199.12135846 530.75240674 -200.671875 529.02734375 C-222.45075581 504.61502189 -246.57720586 463.09558659 -246.0625 429.125 C-246.04896484 427.95324219 -246.04896484 427.95324219 -246.03515625 426.7578125 C-246.02355469 426.17773438 -246.01195312 425.59765625 -246 425 C-241.30322523 425.49619843 -238.90466889 427.39796069 -235.3125 430.375 C-224.02178596 439.42608331 -211.23160808 447.14959826 -198 453 C-197.30632324 453.31614258 -196.61264648 453.63228516 -195.89794922 453.95800781 C-182.63419632 459.9102242 -169.21412952 463.58228401 -155.125 466.9375 C-110.74013583 477.55679837 -63.08496304 498.55256466 -36 537 C-35.28585937 537.93585937 -34.57171875 538.87171875 -33.8359375 539.8359375 C-24.41758501 552.59323769 -19.93176611 566.69847393 -15.49926758 581.79516602 C-13.64496799 588.06991245 -11.55500881 594.02514136 -8.84765625 599.98828125 C-8 602 -8 602 -8 604 C-7.34 604 -6.68 604 -6 604 C-6.08521938 596.4531504 -6.18039854 588.90647841 -6.28752708 581.35990906 C-6.33700043 577.85391006 -6.38332444 574.34793434 -6.421875 570.84179688 C-6.37846147 531.35707224 -6.37846147 531.35707224 -22 496 C-22.474375 495.34644531 -22.94875 494.69289063 -23.4375 494.01953125 C-26.98984372 489.49222362 -30.70398967 487.15309861 -36 485 C-36.74894531 484.66613281 -37.49789062 484.33226562 -38.26953125 483.98828125 C-41.66710974 482.75854254 -45.07345667 482.09152204 -48.625 481.5 C-49.38989746 481.37109375 -50.15479492 481.2421875 -50.94287109 481.109375 C-58.14306656 479.9819222 -65.35704534 479.47728048 -72.625 479 C-114.98218956 476.14354213 -154.28456928 460.43190683 -185.48828125 431.3203125 C-187.58771833 429.38086363 -189.72969338 427.56176709 -191.9375 425.75 C-203.15395254 415.92703749 -211.70986785 403.26892471 -220 391 C-220.41910645 390.38624512 -220.83821289 389.77249023 -221.27001953 389.14013672 C-234.55704031 369.59532297 -247.48904075 344.32099899 -246 320 C-242.05906505 321.21259537 -238.4117463 322.71878518 -234.7019043 324.51196289 C-209.38549347 336.55563453 -180.5335903 343.25573209 -153.15014648 348.54370117 C-120.15978582 354.98328175 -90.79686314 374.54479429 -66.33203125 396.890625 C-64.25701226 398.7675266 -62.14022939 400.57360452 -60 402.375 C-42.46187057 417.87053604 -33.32017775 437.15184577 -27.19921875 459.4152832 C-25.24409979 466.51339578 -22.81548522 473.13875528 -19.6875 479.8125 C-19.34477051 480.55242187 -19.00204102 481.29234375 -18.64892578 482.0546875 C-15.38720327 488.7767108 -11.22871193 494.8591522 -7 501 C-6.89742136 493.47855467 -6.82804728 485.95729383 -6.78027344 478.43530273 C-6.76032853 475.88380188 -6.73316271 473.3323457 -6.69824219 470.78100586 C-6.50451532 456.24864203 -6.63256126 442.94722202 -11 429 C-11.42669826 427.54694503 -11.85087755 426.0931483 -12.27270508 424.63867188 C-14.63274699 416.52900763 -17.52166943 408.69949105 -21 401 C-21.36931641 399.96939453 -21.36931641 399.96939453 -21.74609375 398.91796875 C-24.06498208 393.40309961 -28.76750865 391.63395607 -34.0546875 389.3984375 C-39.14002451 387.50603797 -44.37688993 386.20349368 -49.63476562 384.88745117 C-64.74697955 381.10191936 -78.93468987 375.66536062 -93 369 C-94.02456299 368.51660156 -94.02456299 368.51660156 -95.06982422 368.0234375 C-99.77004363 365.78751006 -104.40342275 363.44165383 -109 361 C-109.69480469 360.63181152 -110.38960937 360.26362305 -111.10546875 359.88427734 C-122.30950467 353.85624072 -131.76989574 346.73689258 -141 338 C-141.82588623 337.22172852 -141.82588623 337.22172852 -142.66845703 336.42773438 C-149.69435566 329.74771961 -156.03937717 322.65274104 -162 315 C-162.70382812 314.14792969 -163.40765625 313.29585937 -164.1328125 312.41796875 C-171.82895182 302.77710605 -177.30348736 291.89304938 -183 281 C-183.4017041 280.2457373 -183.8034082 279.49147461 -184.21728516 278.71435547 C-194.64390567 259.13532694 -200.95696514 239.36462976 -200 217 C-195.59274864 217.55290972 -192.99058309 219.16032887 -189.375 221.6875 C-182.3469545 226.40372731 -174.93962856 230.34703109 -167.4375 234.25 C-166.31456543 234.83998779 -165.19163086 235.42997559 -164.03466797 236.0378418 C-157.4836035 239.41551069 -150.91333785 242.33114248 -143.98779297 244.85668945 C-140.8079851 246.07347653 -137.75916068 247.47070846 -134.6875 248.9375 C-130.63285824 250.85556407 -126.58666671 252.55243053 -122.35717773 254.04760742 C-101.43855627 261.46020429 -81.79338026 273.53412332 -65 288 C-64.16210938 288.70511719 -63.32421875 289.41023438 -62.4609375 290.13671875 C-51.57374004 299.56022954 -44.58604746 310.37117812 -38 323 C-37.51418457 323.92256592 -37.51418457 323.92256592 -37.01855469 324.86376953 C-30.62524161 337.1784286 -27.05559473 350.24677577 -23.50390625 363.60546875 C-19.99540401 376.7985311 -16.5081793 389.71349487 -9.89453125 401.73754883 C-9.3528833 402.72419022 -8.81123535 403.7108316 -8.25317383 404.72737122 C-7.83962646 405.47733871 -7.4260791 406.22730621 -7 407 C-6.93000479 398.37572225 -6.87694049 389.7515663 -6.84456348 381.12707329 C-6.82901185 377.12090789 -6.80796981 373.11493905 -6.77368164 369.10888672 C-6.74070802 365.2314579 -6.72306839 361.35421625 -6.71536827 357.47665787 C-6.70989201 356.00892319 -6.69920194 354.54119691 -6.68280983 353.07354355 C-6.4449806 330.86451848 -12.93641152 302.25914956 -27.859375 284.828125 C-29.83477861 283.19039722 -31.6859762 282.11042082 -34 281 C-34.99515625 280.50757813 -35.9903125 280.01515625 -37.015625 279.5078125 C-43.35117534 276.60040241 -49.67782834 274.42957639 -56.375 272.5625 C-64.97673769 270.16063391 -72.95861433 266.86506687 -81 263 C-82.09828125 262.47792969 -83.1965625 261.95585937 -84.328125 261.41796875 C-98.33131345 254.330148 -110.37914969 244.21962409 -121.59521484 233.34912109 C-122.87178637 232.12313321 -124.17854003 230.92876817 -125.48828125 229.73828125 C-143.74693249 212.67795255 -153.17374721 185.89070307 -158 162 C-158.23082275 160.89229248 -158.23082275 160.89229248 -158.46630859 159.76220703 C-160.98095938 147.18895309 -161.26580181 134.71247323 -161.25 121.9375 C-161.24931519 121.12920746 -161.24863037 120.32091492 -161.2479248 119.48812866 C-161.24143751 117.1677127 -161.22507043 114.84766119 -161.203125 112.52734375 C-161.19873413 111.82716125 -161.19434326 111.12697876 -161.18981934 110.40557861 C-161.14240999 107.13322439 -160.99761313 104.13128571 -160 101 C-156.20694446 101.5888762 -154.23844208 103.2592599 -151.375 105.75 C-135.56728521 118.98241821 -118.13395203 130.13869231 -100.62011719 140.95458984 C-88.5821128 148.39364053 -77.26549994 156.19942306 -67 166 C-66.4121875 166.52464844 -65.824375 167.04929687 -65.21875 167.58984375 C-42.89373948 188.28260114 -31.26796639 217.59093601 -25.875 246.75 C-25.62170408 248.09516715 -25.36779915 249.44021977 -25.11328125 250.78515625 C-24.62598572 253.36298438 -24.14053135 255.94113221 -23.65625 258.51953125 C-20.91788443 273.04264867 -18.13973486 286.53497716 -8.39624023 298.14477539 C-7.60548096 299.08699951 -6.81472168 300.02922363 -6 301 C-5.90019546 294.82939222 -5.82809389 288.65926712 -5.78027344 282.48803711 C-5.76031224 280.39420371 -5.73313341 278.30042494 -5.69824219 276.20678711 C-5.50659385 264.40068567 -5.41886653 254.0505878 -10 243 C-10.58474898 241.38806203 -11.16939099 239.77608524 -11.75390625 238.1640625 C-12.34924209 236.64806349 -12.95229115 235.13507381 -13.5625 233.625 C-13.89765625 232.78904297 -14.2328125 231.95308594 -14.578125 231.09179688 C-17.29992012 224.43469869 -20.35230679 217.96465223 -23.5 211.5 C-30.47019922 197.18478216 -37.02813726 182.46532062 -41 167 C-41.29777344 165.87851562 -41.59554687 164.75703125 -41.90234375 163.6015625 C-48.30640214 135.44731503 -42.07774457 107.06630033 -34.73828125 79.77832031 C-34.07523708 77.28313426 -33.45504161 74.78165673 -32.84375 72.2734375 C-29.87391515 60.75318371 -25.12273298 50.09768465 -20.1875 39.3125 C-19.85333069 38.58122894 -19.51916138 37.84995789 -19.17486572 37.0965271 C-13.37275474 24.46547229 -7.28279408 11.85481023 0 0 Z " fill="#FBFCFB" transform="translate(517,214)"/>
<path d="M0 0 C3.59501566 1.57071946 6.27062716 3.78003309 9.25 6.3125 C21.43744526 16.33507011 33.36015155 20.62841717 48.9375 22.5 C72.43936804 25.35253823 94.69580597 34.74549595 110.5703125 52.8515625 C114.96529295 58.54666579 118.52955155 64.70981218 122 71 C122.433125 71.74378906 122.86625 72.48757813 123.3125 73.25390625 C124 75 124 75 123 78 C122.5875 77.17757812 122.175 76.35515625 121.75 75.5078125 C110.76746087 54.27817213 95.4752722 44.27271418 74 35 C72.86433594 34.49597656 71.72867188 33.99195313 70.55859375 33.47265625 C62.43165994 30.22395857 54.06580409 28.78727804 45.5 27.125 C25.53649938 23.18306625 12.86415609 15.84175461 0 0 Z " fill="#182D31" transform="translate(356,608)"/>
<path d="M0 0 C12.18555461 3.39597424 20.90444355 10.45291932 30 19 C47.41343185 34.68867288 64.21415761 43.69706733 86.71044922 50.09008789 C103.33263306 54.81915444 121.23908984 60.17232608 135 71 C130.18478792 70.27100375 125.88900892 68.4965873 121.375 66.75 C114.92407955 64.31470778 108.49749958 62.19071418 101.8125 60.5 C100.66116577 60.2071814 100.66116577 60.2071814 99.48657227 59.90844727 C97.8660866 59.49691897 96.24556132 59.08554666 94.625 58.67431641 C58.28128693 49.3382547 58.28128693 49.3382547 44 37 C43.33871094 36.45730469 42.67742187 35.91460938 41.99609375 35.35546875 C38.62580466 32.52237944 35.58798596 29.61710198 32.75 26.25 C23.4793605 15.42726249 12.83896822 7.20344378 0 1 C0 0.67 0 0.34 0 0 Z " fill="#0F2527" transform="translate(354,720)"/>
<path d="M0 0 C11.37299541 5.20842931 19.2666569 16.52483817 25.70361328 26.82617188 C28.41257678 31.15016225 31.31558588 35.21517189 34.53125 39.18359375 C35.68860104 40.61489224 36.76664674 42.11031596 37.8125 43.625 C44.6013617 50.99576413 54.28643117 55.58021891 62.86328125 60.58203125 C76.26016095 68.40120984 89.85587918 77.73454109 94.7578125 93.42578125 C94.83773437 93.94527344 94.91765625 94.46476563 95 95 C92.46281378 92.56039786 90.07566573 90.01479593 87.75 87.375 C87.22921875 86.78460937 86.7084375 86.19421875 86.171875 85.5859375 C85 84 85 84 85 82 C84.40614502 81.72816895 83.81229004 81.45633789 83.20043945 81.17626953 C81.05076059 80.02713464 79.56669428 78.83443866 77.79296875 77.1796875 C73.95031218 73.80649576 69.8212258 71.49468669 65.3125 69.125 C46.89580331 59.13739705 33.48633234 48.4771089 23.05151367 30.07641602 C16.65803755 18.80932314 10.18405433 9.23391626 0 1 C0 0.67 0 0.34 0 0 Z " fill="#1A3033" transform="translate(386,498)"/>
<path d="M0 0 C0.66 0 1.32 0 2 0 C2.01458252 0.95028076 2.02916504 1.90056152 2.04418945 2.87963867 C2.45330782 27.63267646 3.31929252 51.38242738 11.3671875 75.0546875 C15.35341493 86.86144715 17.00211204 96.15804233 11.703125 107.8828125 C10.13168462 110.75898091 8.41120686 113.34412904 6.52880859 116.015625 C0.82907518 124.14306503 -0.60337839 131.14843086 -1 141 C-1.33 141 -1.66 141 -2 141 C-3.57494997 128.16707435 0.35372419 119.44341944 5.99291992 108.10791016 C12.14971593 95.2211764 8.10948735 82.83739501 4 70 C3.66645508 69.08766602 3.33291016 68.17533203 2.98925781 67.23535156 C1.86414083 63.55567479 1.29823709 59.9433124 0.8828125 56.1328125 C0.79830841 55.3607547 0.71380432 54.5886969 0.6267395 53.79324341 C-0.41339278 43.17673434 -0.21354877 32.52925459 -0.125 21.875 C-0.11493803 19.74088967 -0.10581794 17.60677469 -0.09765625 15.47265625 C-0.07592543 10.3149862 -0.04157764 5.15754666 0 0 Z " fill="#253B3E" transform="translate(514,312)"/>
<path d="M0 0 C0.495 0.99 0.495 0.99 1 2 C-4.31317251 10.50404427 -10.12158804 17.70437289 -17 25 C-18.76780706 26.98434567 -20.51319146 28.985181 -22.24780273 30.99853516 C-23.34984423 32.25735307 -24.46941576 33.50124537 -25.61303711 34.72241211 C-31.36541627 40.9608365 -35.36814765 48.00673774 -39.57421875 55.3359375 C-49.41101039 72.03405785 -61.90801102 81.7415736 -80.125 87.9375 C-80.77654053 88.16115234 -81.42808105 88.38480469 -82.09936523 88.61523438 C-86.74893833 90.12553083 -86.74893833 90.12553083 -89 89 C-83.27729368 85.22691307 -77.53319326 81.70446066 -71.4375 78.5625 C-58.17584147 71.4917105 -50.14941548 61.87648332 -42.0625 49.5 C-36.68064591 41.31057331 -30.52490424 34.45722751 -23.52734375 27.62109375 C-14.66628513 18.93875582 -6.39564211 10.69781578 0 0 Z " fill="#142A2E" transform="translate(635,395)"/>
<path d="M0 0 C0.99 0.495 0.99 0.495 2 1 C-3.08032273 4.54816191 -8.2676658 7.74373345 -13.6875 10.75 C-23.04099164 15.99099504 -31.5767966 22.28563883 -39.99243164 28.9074707 C-51.5170029 37.94341016 -63.12341224 43.48567848 -76.86914062 48.25390625 C-79.5341593 49.1870292 -82.17194868 50.1875279 -84.8125 51.1875 C-88.78500624 52.64265298 -92.79004342 53.77641124 -96.875 54.875 C-103.15873999 56.60198814 -108.64052252 58.99821439 -114.453125 61.92578125 C-115.29359375 62.28027344 -116.1340625 62.63476562 -117 63 C-117.66 62.67 -118.32 62.34 -119 62 C-104.21011985 52.3055148 -87.2638159 45.86275712 -70.75 39.75 C-58.0643998 35.01391717 -47.31120104 28.6343923 -36.23364258 20.91503906 C-25.73792741 13.64885535 -14.63740414 7.65473148 -3.16015625 2.09375 C-1.07506633 1.17887715 -1.07506633 1.17887715 0 0 Z " fill="#15282C" transform="translate(679,723)"/>
<path d="M0 0 C0.99 0.495 0.99 0.495 2 1 C-13.06976959 14.29472461 -30.44746484 21.91481245 -49.93066406 26.13476562 C-57.04476689 27.7048751 -63.49103863 29.66656965 -70 33 C-70.5887793 33.29326172 -71.17755859 33.58652344 -71.78417969 33.88867188 C-85.97280343 41.03691921 -99.07182153 50.48988038 -109 63 C-110.31635024 64.35010281 -111.63973902 65.69414946 -113 67 C-111.5455001 62.59587181 -109.16550199 59.35667322 -106.1875 55.875 C-105.70394043 55.30950439 -105.22038086 54.74400879 -104.72216797 54.16137695 C-95.94083798 44.16018437 -85.64201853 36.40919487 -74 30 C-73.33782471 29.62045166 -72.67564941 29.24090332 -71.9934082 28.84985352 C-64.65488436 24.87615161 -56.91659285 22.68487445 -48.94277954 20.37875366 C-23.05069509 13.27542978 -23.05069509 13.27542978 0 0 Z " fill="#1E3336" transform="translate(675,619)"/>
<path d="M0 0 C3.78393451 3.15327876 7.38194411 6.33964098 10.8125 9.875 C13.71263492 12.83123037 16.71975267 15.41075512 20 17.9375 C31.18527789 26.73084924 36.22786149 35.9813786 40.375 49.3125 C44.99323141 63.56608654 49.85857719 74.43690372 63.5546875 81.67578125 C65.9837205 82.91112987 68.42707343 84.11511676 70.875 85.3125 C72.74606995 86.23865075 74.61497462 87.16872913 76.48074341 88.10551453 C78.15597383 88.94507434 79.83735958 89.77231867 81.51904297 90.59887695 C84 92 84 92 85 94 C78.36052276 91.89628285 71.91875384 89.45017447 65.5 86.75 C64.61441406 86.39292969 63.72882813 86.03585937 62.81640625 85.66796875 C53.01520802 81.53736098 44.71533849 75.75904317 40 66 C37.20755122 58.90983958 35.01307384 51.59078395 32.9453125 44.26171875 C29.35643111 31.64131351 22.50406356 23.69652874 13 15 C12.34 14.67 11.68 14.34 11 14 C11 13.34 11 12.68 11 12 C10.41734375 11.7525 9.8346875 11.505 9.234375 11.25 C6.66885764 9.81474554 5.16275202 8.22336987 3.25 6 C2.63640625 5.29875 2.0228125 4.5975 1.390625 3.875 C0 2 0 2 0 0 Z " fill="#1D373A" transform="translate(402,388)"/>
<path d="M0 0 C0.99 0.495 0.99 0.495 2 1 C0.71416016 2.17755859 0.71416016 2.17755859 -0.59765625 3.37890625 C-3.55545179 6.09259926 -6.50150915 8.81865306 -9.44091797 11.55224609 C-10.6345936 12.66068589 -11.83369415 13.7632862 -13.03515625 14.86328125 C-16.24306045 17.91354888 -18.95082893 21.19101219 -21.63549805 24.71240234 C-33.18118962 39.83810528 -46.2923778 51.5786733 -62.3046875 61.73828125 C-63.78667933 62.67933955 -65.26845018 63.62074596 -66.75 64.5625 C-67.47058594 65.01906982 -68.19117188 65.47563965 -68.93359375 65.94604492 C-74.13554176 69.29725383 -78.65334829 72.92212823 -83.1171875 77.22265625 C-85 79 -85 79 -88 81 C-82.61055704 69.26241509 -70.29582232 60.82333163 -60.2109375 53.3828125 C-47.99808822 44.31974917 -36.43437403 34.93522634 -26.24755859 23.59106445 C-18.31351499 14.83467434 -9.34368739 7.21448429 0 0 Z " fill="#192E32" transform="translate(639,510)"/>
<path d="M0 0 C3.66925123 0.99068471 7.33548821 1.99192517 11 3 C12.27883057 3.35167236 12.27883057 3.35167236 13.58349609 3.71044922 C29.01049537 8.05034558 42.88439032 14.45891118 57 22 C52.92103229 23.3596559 51.47219191 22.14611673 47.5625 20.4375 C31.00170956 13.49107808 13.36510339 9.40980987 -4 5 C-3.01 4.34 -2.02 3.68 -1 3 C-0.67 2.01 -0.34 1.02 0 0 Z " fill="#1F3031" transform="translate(432,768)"/>
<path d="M0 0 C0.66 0.33 1.32 0.66 2 1 C-12.35852526 13.66725666 -32.38276157 25.70061566 -52 25 C-51.82202148 23.11621094 -51.82202148 23.11621094 -51 21 C-48.78540039 19.93847656 -48.78540039 19.93847656 -45.84765625 19.140625 C-44.76911377 18.83358643 -43.69057129 18.52654785 -42.5793457 18.21020508 C-41.41878662 17.8933374 -40.25822754 17.57646973 -39.0625 17.25 C-30.77573543 14.84786638 -22.6917302 12.34834595 -14.8125 8.8125 C-14.11455322 8.5040918 -13.41660645 8.19568359 -12.69750977 7.87792969 C-8.05278666 5.72904025 -4.09127003 3.07243235 0 0 Z " fill="#14272A" transform="translate(675,619)"/>
<path d="M0 0 C6.1055471 -0.02464513 12.21106551 -0.04283371 18.31665039 -0.05493164 C20.39543156 -0.05997288 22.47420916 -0.06680574 24.55297852 -0.07543945 C27.53402586 -0.08751422 30.51502649 -0.09323024 33.49609375 -0.09765625 C34.89921059 -0.10539818 34.89921059 -0.10539818 36.33067322 -0.11329651 C37.19149002 -0.11337204 38.05230682 -0.11344757 38.93920898 -0.11352539 C40.08171364 -0.11685631 40.08171364 -0.11685631 41.24729919 -0.12025452 C43 0 43 0 44 1 C45.68183948 1.23287008 47.3712416 1.41264166 49.0625 1.5625 C49.98160156 1.64628906 50.90070312 1.73007812 51.84765625 1.81640625 C52.91306641 1.90728516 52.91306641 1.90728516 54 2 C54 2.66 54 3.32 54 4 C34.86 4 15.72 4 -4 4 C-3.67 3.34 -3.34 2.68 -3 2 C-2.01 2 -1.02 2 0 2 C0 1.34 0 0.68 0 0 Z " fill="#02181B" transform="translate(546,812)"/>
<path d="M0 0 C11.37299541 5.20842931 19.2666569 16.52483817 25.70361328 26.82617188 C28.8288863 31.81466672 32.27809233 36.43797669 36 41 C36.70125 41.9075 37.4025 42.815 38.125 43.75 C40.27291559 46.32749871 42.59548697 48.662279 45 51 C44.34 51 43.68 51 43 51 C42.67 51.99 42.34 52.98 42 54 C33.53327276 47.26117628 28.28223297 39.70378926 23.1875 30.25 C17.4207162 19.58425471 10.98876956 9.82897807 1.3984375 2.171875 C0.93695313 1.78515625 0.47546875 1.3984375 0 1 C0 0.67 0 0.34 0 0 Z " fill="#1C3036" transform="translate(386,498)"/>
<path d="M0 0 C0.99 0.66 1.98 1.32 3 2 C2.03653014 7.20273726 -0.91737373 9.82314399 -5 13 C-13.95311364 18.37645365 -23.86804003 22.45374828 -34 25 C-34.66 24.67 -35.32 24.34 -36 24 C-30.27729368 20.22691307 -24.53319326 16.70446066 -18.4375 13.5625 C-11.55684497 9.93332396 -5.50424489 5.50424489 0 0 Z " fill="#142B2F" transform="translate(582,460)"/>
<path d="M0 0 C0.33 0 0.66 0 1 0 C2.16281933 8.70213607 2.11579895 17.36788151 2.0625 26.125 C2.05747252 27.57291511 2.05291183 29.02083192 2.04882812 30.46875 C2.03792705 33.97920259 2.02073202 37.48959007 2 41 C1.34 41 0.68 41 0 41 C0 53.21 0 65.42 0 78 C-0.66 78 -1.32 78 -2 78 C-2.04646267 69.01131661 -2.08193974 60.02267494 -2.10362434 51.0338974 C-2.11403499 46.85946899 -2.12814419 42.68512311 -2.15087891 38.51074219 C-2.1727047 34.47773941 -2.18458906 30.44481573 -2.18975449 26.41175842 C-2.19343283 24.87767798 -2.20061551 23.34360157 -2.21146011 21.80955505 C-2.31188082 7.00763876 -2.31188082 7.00763876 0 0 Z " fill="#062227" transform="translate(524,747)"/>
<path d="M0 0 C0.66 0 1.32 0 2 0 C2.01458252 0.95028076 2.02916504 1.90056152 2.04418945 2.87963867 C2.30738863 26.51579848 2.30738863 26.51579848 5.0715332 49.95581055 C5.72722272 53.66347986 6.08874972 56.39195729 5 60 C4.67 59.34 4.34 58.68 4 58 C3.67 59.98 3.34 61.96 3 64 C2.67 64 2.34 64 2 64 C0.02584069 49.91825713 -0.2430444 36.07819164 -0.125 21.875 C-0.11493803 19.74088967 -0.10581794 17.60677469 -0.09765625 15.47265625 C-0.07592543 10.3149862 -0.04157764 5.15754666 0 0 Z " fill="#606F71" transform="translate(514,312)"/>
<path d="M0 0 C0.33 0 0.66 0 1 0 C1 1.98 1 3.96 1 6 C1.66 6 2.32 6 3 6 C3 14.25 3 22.5 3 31 C2.01 31.33 1.02 31.66 0 32 C-0.33 43.88 -0.66 55.76 -1 68 C-1.33 68 -1.66 68 -2 68 C-2.05103372 60.24449498 -2.08587282 52.48903386 -2.10986328 44.73339844 C-2.11987285 42.09926739 -2.13348457 39.46514732 -2.15087891 36.83105469 C-2.17534995 33.0279671 -2.18653393 29.22502742 -2.1953125 25.421875 C-2.20563507 24.25887878 -2.21595764 23.09588257 -2.22659302 21.89764404 C-2.22760312 14.40688981 -1.46906475 7.34521965 0 0 Z " fill="#395254" transform="translate(523,653)"/>
<path d="M0 0 C3.78393451 3.15327876 7.38194411 6.33964098 10.8125 9.875 C13.71263492 12.83123037 16.71975267 15.41075512 20 17.9375 C26.70681237 23.21008634 34.98837726 30.29396061 37 39 C36.73377403 42.15527073 36.02444694 45.00972245 35 48 C34.67 48 34.34 48 34 48 C33.78085937 47.16597656 33.56171875 46.33195312 33.3359375 45.47265625 C29.61180024 32.2565106 22.93758024 24.09321067 13 15 C12.34 14.67 11.68 14.34 11 14 C11 13.34 11 12.68 11 12 C10.41734375 11.7525 9.8346875 11.505 9.234375 11.25 C6.66885764 9.81474554 5.16275202 8.22336987 3.25 6 C2.63640625 5.29875 2.0228125 4.5975 1.390625 3.875 C0 2 0 2 0 0 Z " fill="#22393E" transform="translate(402,388)"/>
<path d="M0 0 C3.59501566 1.57071946 6.27062716 3.78003309 9.25 6.3125 C20.02280053 15.17171096 31.8137672 21.13145513 46 22 C44.68 22.33 43.36 22.66 42 23 C42.495 24.485 42.495 24.485 43 26 C24.59393618 23.99934089 11.45705158 14.1705638 0 0 Z " fill="#213339" transform="translate(356,608)"/>
<path d="M0 0 C0.495 0.99 0.495 0.99 1 2 C-4.31317251 10.50404427 -10.12158804 17.70437289 -17 25 C-18.23718678 26.38872973 -19.46721339 27.78389679 -20.6875 29.1875 C-21.50347656 30.12529297 -21.50347656 30.12529297 -22.3359375 31.08203125 C-23.15964844 32.03142578 -23.15964844 32.03142578 -24 33 C-25.26992821 34.45912159 -26.54075328 35.91746312 -27.8125 37.375 C-28.65748047 38.34566406 -28.65748047 38.34566406 -29.51953125 39.3359375 C-32.32129983 42.48515496 -33.83385078 43.34218697 -38 44 C-32.72515379 36.17712292 -25.96021175 29.85185316 -19.17602539 23.36791992 C-11.68408353 16.18525049 -5.60656267 8.73977102 0 0 Z " fill="#2B3C40" transform="translate(635,395)"/>
<path d="M0 0 C12.18964463 3.39711408 20.89705088 10.45746539 30 19 C34.591043 23.09183868 39.25633623 27.08647739 44 31 C43.34 32.32 42.68 33.64 42 35 C38.59052909 32.33894953 35.65311683 29.69235818 32.875 26.375 C23.53230433 15.51616512 12.91201139 7.23873627 0 1 C0 0.67 0 0.34 0 0 Z " fill="#223439" transform="translate(354,720)"/>
<path d="M0 0 C0.66 0.33 1.32 0.66 2 1 C-3.08032273 4.54816191 -8.2676658 7.74373345 -13.6875 10.75 C-21.20841119 14.94191568 -28.06803637 19.91214675 -35 25 C-35.99 25.66 -36.98 26.32 -38 27 C-38.375 24.76953125 -38.375 24.76953125 -38 22 C-35.99346943 20.25369136 -34.26247431 19.01836724 -32 17.6875 C-31.37786621 17.30432617 -30.75573242 16.92115234 -30.11474609 16.52636719 C-24.75846657 13.29424421 -19.20359667 10.47924333 -13.57373047 7.75878906 C-9.94172409 6.0014533 -6.50367738 4.15934762 -3.125 1.9375 C-2.09375 1.298125 -1.0625 0.65875 0 0 Z " fill="#273A3E" transform="translate(679,723)"/>
<path d="M0 0 C1.60597325 0.45196245 3.20972508 0.91182327 4.8125 1.375 C6.15248047 1.75785156 6.15248047 1.75785156 7.51953125 2.1484375 C10 3 10 3 13 5 C11.02 7.97 11.02 7.97 9 11 C3.18733381 10.21450457 -2.36877624 8.59317541 -8 7 C-5.66785852 5.79371992 -3.50357861 4.8345262 -1 4 C-0.26676204 1.98491642 -0.26676204 1.98491642 0 0 Z " fill="#142E35" transform="translate(381,678)"/>
<path d="M0 0 C0.66 0 1.32 0 2 0 C2 13.86 2 27.72 2 42 C1.01 42.495 1.01 42.495 0 43 C-0.14547716 39.10809917 -0.28771642 35.2160933 -0.42724609 31.32397461 C-0.49805356 29.3663144 -0.57125854 27.40874137 -0.64453125 25.45117188 C-1.29581164 7.16880085 -1.29581164 7.16880085 -1 1 C-0.67 0.67 -0.34 0.34 0 0 Z " fill="#001418" transform="translate(526,743)"/>
<path d="M0 0 C0.33 0 0.66 0 1 0 C1.93353742 5.67691673 2.08772448 9.51972325 0 15 C0.33 15.99 0.66 16.98 1 18 C-0.54199958 20.46660281 -2.13658138 22.81550027 -3.8125 25.1875 C-9.25723712 33.27511364 -10.71839343 40.37417548 -11 50 C-11.33 50 -11.66 50 -12 50 C-13.5746074 37.16986564 -9.65060429 28.44073796 -4.00634766 17.109375 C-1.98062949 12.86332819 -0.79985014 8.79835151 -0.375 4.125 C-0.30023437 3.34382813 -0.22546875 2.56265625 -0.1484375 1.7578125 C-0.09945312 1.17773438 -0.05046875 0.59765625 0 0 Z " fill="#37484A" transform="translate(524,403)"/>
<path d="M0 0 C0.99 0.33 1.98 0.66 3 1 C2.88141807 6.72929906 2.75714775 12.45843645 2.62768555 18.1875 C2.58446764 20.13505734 2.54278369 22.08264937 2.50268555 24.03027344 C2.44466342 26.83539262 2.38106216 29.64033933 2.31640625 32.4453125 C2.29969376 33.31116974 2.28298126 34.17702698 2.26576233 35.06912231 C2.15867445 39.47391908 1.86678481 43.66299133 1 48 C0.67 48 0.34 48 0 48 C0 32.16 0 16.32 0 0 Z " fill="#02161B" transform="translate(504,731)"/>
<path d="M0 0 C11.01120499 6.08311324 17.07159922 17.34642566 23 28 C23.43441406 28.74507812 23.86882812 29.49015625 24.31640625 30.2578125 C25 32 25 32 24 35 C23.5875 34.17757812 23.175 33.35515625 22.75 32.5078125 C16.6624199 20.74030276 9.79955476 11.92262419 -1 4 C-0.67 2.68 -0.34 1.36 0 0 Z " fill="#1A3035" transform="translate(455,651)"/>
<path d="M0 0 C0.66 0.33 1.32 0.66 2 1 C-6.33422419 8.35254874 -16.37189283 15.45729761 -27 19 C-27 18.34 -27 17.68 -27 17 C-28.32 16.34 -29.64 15.68 -31 15 C-30.44650879 14.78907715 -29.89301758 14.5781543 -29.32275391 14.36083984 C-13.58155604 9.06864961 -13.58155604 9.06864961 0 0 Z " fill="#203438" transform="translate(675,619)"/>
<path d="M0 0 C4.2197544 0.58629129 7.19602387 2.02298658 10.8125 4.25 C11.78832031 4.83265625 12.76414062 5.4153125 13.76953125 6.015625 C16 8 16 8 16.32421875 10.734375 C16.21722656 11.48203125 16.11023438 12.2296875 16 13 C11.50126516 12.46639094 8.84959851 10.75247024 5.25 8.0625 C4.28578125 7.35222656 3.3215625 6.64195312 2.328125 5.91015625 C0 4 0 4 -1 2 C-0.67 1.34 -0.34 0.68 0 0 Z " fill="#16282C" transform="translate(429,549)"/>
<path d="M0 0 C-0.36495057 2.76754183 -0.84613423 3.85217441 -2.890625 5.81640625 C-3.66921875 6.39261719 -4.4478125 6.96882812 -5.25 7.5625 C-6.06082031 8.16320312 -6.87164063 8.76390625 -7.70703125 9.3828125 C-14.25362319 14 -14.25362319 14 -17 14 C-16.42300342 8.99936302 -12.86768666 5.63788182 -9.25390625 2.46875 C-4.1683102 -1.46848565 -4.1683102 -1.46848565 0 0 Z " fill="#14272B" transform="translate(594,556)"/>
<path d="M0 0 C3.64628908 1.35265563 6.82567172 3.0092483 10.125 5.0625 C12.80251948 6.72679402 14.99972402 7.99990801 18 9 C17.67 9.66 17.34 10.32 17 11 C17 11.33 17 11.66 17 12 C16.67 12.99 16.34 13.98 16 15 C3.14578588 8.07061503 3.14578588 8.07061503 -1 2 C-0.67 1.34 -0.34 0.68 0 0 Z " fill="#182A2F" transform="translate(397,752)"/>
<path d="M0 0 C6.01077136 1.63040815 12.01663928 3.27147357 18 5 C17.67 6.32 17.34 7.64 17 9 C11.76884607 9.21544006 7.56214697 8.52370193 2.5625 7 C1.32628906 6.62875 0.09007812 6.2575 -1.18359375 5.875 C-2.57771484 5.441875 -2.57771484 5.441875 -4 5 C-3.01 4.34 -2.02 3.68 -1 3 C-0.67 2.01 -0.34 1.02 0 0 Z " fill="#273A3B" transform="translate(432,768)"/>
<path d="M0 0 C6.26418531 1.48362284 10.91513505 5.24162156 16 9 C15.67 10.32 15.34 11.64 15 13 C11.20950293 11.57250019 7.72877544 9.83763458 4.1875 7.875 C2.72376953 7.06675781 2.72376953 7.06675781 1.23046875 6.2421875 C0.49441406 5.83226562 -0.24164063 5.42234375 -1 5 C-0.67 3.35 -0.34 1.7 0 0 Z " fill="#0D2124" transform="translate(439,641)"/>
<path d="M0 0 C1.65 0 3.3 0 5 0 C5.33 5.61 5.66 11.22 6 17 C4.68 17.33 3.36 17.66 2 18 C1.34 18.33 0.68 18.66 0 19 C0 12.73 0 6.46 0 0 Z " fill="#052F2E" transform="translate(312,432)"/>
<path d="M0 0 C4.26058762 0.62187165 7.54653683 2.11659654 11.359375 4.08984375 C12.2441452 4.54672325 12.2441452 4.54672325 13.14678955 5.01283264 C14.38542429 5.65449355 15.62244388 6.29928094 16.85791016 6.94702148 C18.75352805 7.93934688 20.6555525 8.91848495 22.55859375 9.89648438 C23.76342418 10.52266202 24.96786551 11.14958905 26.171875 11.77734375 C27.2659668 12.34702881 28.36005859 12.91671387 29.48730469 13.50366211 C32 15 32 15 33 17 C26.19289451 14.8723867 19.66703089 12.269608 13.125 9.4375 C12.18914062 9.03853516 11.25328125 8.63957031 10.2890625 8.22851562 C6.64186815 6.65906921 3.31302919 5.20868613 0 3 C0 2.01 0 1.02 0 0 Z " fill="#183034" transform="translate(454,465)"/>
<path d="M0 0 C12.0695543 5.52742863 20.41987026 17.9988456 27 29 C26.01 29.99 25.02 30.98 24 32 C23.52691406 31.11699219 23.05382812 30.23398437 22.56640625 29.32421875 C16.56694049 18.34849958 9.80544392 8.92780572 0 1 C0 0.67 0 0.34 0 0 Z " fill="#1E3037" transform="translate(386,498)"/>
<path d="M0 0 C5.19644079 1.59890486 10.06612142 3.74138003 15 6 C14.01 6.33 13.02 6.66 12 7 C11.30062468 8.31647119 10.63270867 9.65022151 10 11 C9.01 11.495 9.01 11.495 8 12 C6.0546875 11.00390625 6.0546875 11.00390625 3.875 9.5625 C3.15054687 9.08941406 2.42609375 8.61632812 1.6796875 8.12890625 C1.12539063 7.75636719 0.57109375 7.38382813 0 7 C0.33 6.34 0.66 5.68 1 5 C0.72057545 3.32345271 0.39171753 1.65391846 0 0 Z " fill="#0E2E35" transform="translate(420,581)"/>
<path d="M0 0 C0.33 0 0.66 0 1 0 C2.20484722 5.63526965 2.1129643 11.14536115 2.0625 16.875 C2.05798828 17.84953125 2.05347656 18.8240625 2.04882812 19.828125 C2.03710906 22.21881434 2.02070219 24.6093744 2 27 C1.34 27.33 0.68 27.66 0 28 C-0.33 25.03 -0.66 22.06 -1 19 C-1.66 19 -2.32 19 -3 19 C-3.45510807 12.32508169 -1.7672426 6.40625443 0 0 Z " fill="#0B2121" transform="translate(678,364)"/>
<path d="M0 0 C0.33 0 0.66 0 1 0 C1.38063221 2.3260857 1.71269945 4.66055264 2 7 C1.67 7.33 1.34 7.66 1 8 C0.9057826 10.11681317 0.88257239 12.23680758 0.88647461 14.35571289 C0.88632858 15.01910172 0.88618256 15.68249054 0.8860321 16.36598206 C0.88673119 18.56823956 0.89452335 20.77041345 0.90234375 22.97265625 C0.90420794 24.49580336 0.90563184 26.01895107 0.90663147 27.542099 C0.91045654 31.55837651 0.92028672 35.57461808 0.93133545 39.59088135 C0.94154981 43.68623366 0.94612914 47.78159176 0.95117188 51.87695312 C0.961909 59.91798528 0.97898528 67.95898817 1 76 C0.34 76 -0.32 76 -1 76 C-1.02320072 66.97676203 -1.04095447 57.95353438 -1.05181217 48.93027306 C-1.0570241 44.74012572 -1.064091 40.54999884 -1.07543945 36.35986328 C-1.08632847 32.31390813 -1.09228957 28.26797262 -1.09487724 24.22200394 C-1.09672066 22.68069779 -1.10032037 21.13939269 -1.10573006 19.59809494 C-1.11302035 17.43435111 -1.11398758 15.27068778 -1.11352539 13.10693359 C-1.115746 11.87671478 -1.11796661 10.64649597 -1.12025452 9.3789978 C-1.00579651 6.16287461 -0.60871646 3.15632571 0 0 Z " fill="#4B5F60" transform="translate(523,749)"/>
<path d="M0 0 C6.96126834 -0.20883805 13.38612061 -0.37101337 20 2 C20.33 2.99 20.66 3.98 21 5 C6.21867882 5.55353075 6.21867882 5.55353075 0 2 C0 1.34 0 0.68 0 0 Z " fill="#142426" transform="translate(398,631)"/>
<path d="M0 0 C0.66 0.33 1.32 0.66 2 1 C0.68 2.65 -0.64 4.3 -2 6 C-1.34 6.33 -0.68 6.66 0 7 C-3.28734133 8.19972389 -6.58047099 9.38267208 -9.875 10.5625 C-10.81214844 10.90474609 -11.74929688 11.24699219 -12.71484375 11.59960938 C-13.61074219 11.91865234 -14.50664063 12.23769531 -15.4296875 12.56640625 C-16.25710449 12.86490479 -17.08452148 13.16340332 -17.93701172 13.47094727 C-20 14 -20 14 -22 13 C-6.39137632 2.79552262 -6.39137632 2.79552262 0 0 Z " fill="#182E31" transform="translate(568,471)"/>
<path d="M0 0 C0.66 0 1.32 0 2 0 C2 0.99 2 1.98 2 3 C2.66 3 3.32 3 4 3 C4.33452052 10.43378943 4.13902852 16.19877155 1 23 C0.01 23 -0.98 23 -2 23 C-1.649375 21.9275 -1.29875 20.855 -0.9375 19.75 C0.30529908 14.92552301 -0.2125346 10.5369524 -0.80859375 5.63671875 C-1 3 -1 3 0 0 Z " fill="#172B2F" transform="translate(525,396)"/>
<path d="M0 0 C0.66 0.33 1.32 0.66 2 1 C1.14277344 1.78503906 0.28554688 2.57007813 -0.59765625 3.37890625 C-11.61354261 12.94589138 -11.61354261 12.94589138 -21 24 C-21.99 23.67 -22.98 23.34 -24 23 C-22.43202076 19.00538623 -19.6334911 16.53951167 -16.5 13.75 C-15.97116211 13.27199951 -15.44232422 12.79399902 -14.89746094 12.30151367 C-10.09343232 7.99844376 -5.10461542 3.94139553 0 0 Z " fill="#112227" transform="translate(639,510)"/>
<path d="M0 0 C-0.33 0.99 -0.66 1.98 -1 3 C-3.0625 3.6875 -3.0625 3.6875 -5 4 C-3.68 4.66 -2.36 5.32 -1 6 C-3 7.5 -3 7.5 -5 9 C-5.70125 9.556875 -6.4025 10.11375 -7.125 10.6875 C-9 12 -9 12 -11 12 C-10.67 10.68 -10.34 9.36 -10 8 C-12.475 7.01 -12.475 7.01 -15 6 C-12.49876879 4.33251253 -10.22323643 3.10045639 -7.5 1.875 C-6.7265625 1.52179688 -5.953125 1.16859375 -5.15625 0.8046875 C-3 0 -3 0 0 0 Z " fill="#193338" transform="translate(604,477)"/>
<path d="M0 0 C2.35626384 2.86590518 3.67853152 5.38962733 4.75 8.9375 C5.01296875 9.77152344 5.2759375 10.60554688 5.546875 11.46484375 C6.05056258 14.28288892 5.72754661 16.25203678 5 19 C4.01 19 3.02 19 2 19 C-0.85888741 12.31311081 -1.23852969 7.14765932 0 0 Z " fill="#122629" transform="translate(438,429)"/>
<path d="M0 0 C3.96 1.98 7.92 3.96 12 6 C11.01 6.66 10.02 7.32 9 8 C8.34 7.67 7.68 7.34 7 7 C6.67 7.99 6.34 8.98 6 10 C3.03 8.35 0.06 6.7 -3 5 C-2.67 4.01 -2.34 3.02 -2 2 C-1.34 2 -0.68 2 0 2 C0 1.34 0 0.68 0 0 Z " fill="#08252B" transform="translate(393,566)"/>
<path d="M0 0 C3.78393451 3.15327876 7.38194411 6.33964098 10.8125 9.875 C14.60212853 13.73893498 18.70418288 17.04656459 22.99609375 20.3359375 C25 22 25 22 26 24 C25.01 24.33 24.02 24.66 23 25 C22.30132812 24.28972656 21.60265625 23.57945312 20.8828125 22.84765625 C19.97273438 21.92855469 19.06265625 21.00945312 18.125 20.0625 C16.76761719 18.68771484 16.76761719 18.68771484 15.3828125 17.28515625 C13.22317745 14.98812373 13.22317745 14.98812373 11 14 C11 13.34 11 12.68 11 12 C10.41734375 11.7525 9.8346875 11.505 9.234375 11.25 C6.66885764 9.81474554 5.16275202 8.22336987 3.25 6 C2.63640625 5.29875 2.0228125 4.5975 1.390625 3.875 C0 2 0 2 0 0 Z " fill="#22363B" transform="translate(402,388)"/>
<path d="M0 0 C0.33 0 0.66 0 1 0 C1 10.23 1 20.46 1 31 C0.34 31.33 -0.32 31.66 -1 32 C-1.19739706 27.93791759 -1.38118364 23.87532945 -1.5625 19.8125 C-1.61857422 18.66201172 -1.67464844 17.51152344 -1.73242188 16.32617188 C-1.78076172 15.21435547 -1.82910156 14.10253906 -1.87890625 12.95703125 C-1.9260376 11.93585205 -1.97316895 10.91467285 -2.02172852 9.86254883 C-1.99449179 6.27434035 -1.61126832 3.22253665 0 0 Z " fill="#001216" transform="translate(527,534)"/>
<path d="M0 0 C0.33 0 0.66 0 1 0 C1.05787784 3.62493334 1.0935542 7.24974857 1.125 10.875 C1.14175781 11.90753906 1.15851563 12.94007813 1.17578125 14.00390625 C1.18222656 14.99003906 1.18867188 15.97617187 1.1953125 16.9921875 C1.20578613 17.90339355 1.21625977 18.81459961 1.22705078 19.75341797 C1 22 1 22 -1 24 C-2.44209192 19.49346274 -3.34223148 15.79124078 -3 11 C-2.67 10.67 -2.34 10.34 -2 10 C-1.6068352 8.32115762 -1.25914548 6.63149955 -0.9375 4.9375 C-0.76089844 4.01839844 -0.58429688 3.09929687 -0.40234375 2.15234375 C-0.26957031 1.44207031 -0.13679688 0.73179687 0 0 Z " fill="#041B1E" transform="translate(495,454)"/>
<path d="M0 0 C0.66 0.66 1.32 1.32 2 2 C1.14019531 2.21914063 0.28039062 2.43828125 -0.60546875 2.6640625 C-8.42056048 4.76058656 -15.22576783 7.28566112 -22.453125 10.92578125 C-23.29359375 11.28027344 -24.1340625 11.63476562 -25 12 C-25.66 11.67 -26.32 11.34 -27 11 C-5.24907019 -2.17202905 -5.24907019 -2.17202905 0 0 Z " fill="#26383B" transform="translate(587,774)"/>
<path d="M0 0 C0 0.66 0 1.32 0 2 C-2.50497004 3.25248502 -4.20853274 3.11374406 -7.0078125 3.09765625 C-7.99394531 3.09443359 -8.98007812 3.09121094 -9.99609375 3.08789062 C-11.02863281 3.07951172 -12.06117188 3.07113281 -13.125 3.0625 C-14.68541016 3.05573242 -14.68541016 3.05573242 -16.27734375 3.04882812 C-18.85161962 3.03701952 -21.42578146 3.02055075 -24 3 C-23.67 2.34 -23.34 1.68 -23 1 C-15.59028974 -0.67826771 -7.54238363 -0.10639726 0 0 Z " fill="#001317" transform="translate(447,693)"/>
<path d="M0 0 C0.66 0 1.32 0 2 0 C2.05791844 3.12492251 2.09356746 6.24970766 2.125 9.375 C2.14175781 10.26445313 2.15851563 11.15390625 2.17578125 12.0703125 C2.18222656 12.92109375 2.18867188 13.771875 2.1953125 14.6484375 C2.20578613 15.43395996 2.21625977 16.21948242 2.22705078 17.02880859 C2 19 2 19 0 21 C-3.78338788 15.08845644 -1.8156327 8.36312184 -0.4375 1.94140625 C-0.293125 1.30074219 -0.14875 0.66007813 0 0 Z " fill="#05171B" transform="translate(494,560)"/>
<path d="M0 0 C0.66 0.66 1.32 1.32 2 2 C1 3 1 3 -0.94946289 3.11352539 C-1.7821167 3.10828857 -2.61477051 3.10305176 -3.47265625 3.09765625 C-4.37177734 3.09443359 -5.27089844 3.09121094 -6.19726562 3.08789062 C-7.14279297 3.07951172 -8.08832031 3.07113281 -9.0625 3.0625 C-10.01189453 3.05798828 -10.96128906 3.05347656 -11.93945312 3.04882812 C-14.29303065 3.0370011 -16.64648477 3.02052025 -19 3 C-18.67 2.34 -18.34 1.68 -18 1 C-11.91618769 -1.02793744 -6.23123821 -1.33526533 0 0 Z " fill="#04181E" transform="translate(418,805)"/>
<path d="M0 0 C4.18868363 2.86594143 5.95675155 4.99240743 7 10 C6.625 12.375 6.625 12.375 6 14 C6 13.01 6 12.02 6 11 C5.34 11 4.68 11 4 11 C3.67 12.32 3.34 13.64 3 15 C1.00429163 12.00643744 0.68354792 10.92831024 0.375 7.5 C0.30023437 6.7265625 0.22546875 5.953125 0.1484375 5.15625 C0.03034822 3.44084781 0 1.71946205 0 0 Z " fill="#183033" transform="translate(521,385)"/>
<path d="M0 0 C1.69432381 2.22342843 3.16699112 4.37955976 4.625 6.75 C5.03234375 7.38421875 5.4396875 8.0184375 5.859375 8.671875 C7.79720135 11.7518639 9.24833066 14.44683082 10 18 C7.46281378 15.56039786 5.07566573 13.01479593 2.75 10.375 C2.22921875 9.78460937 1.7084375 9.19421875 1.171875 8.5859375 C0 7 0 7 0 5 C-0.9590625 4.566875 -0.9590625 4.566875 -1.9375 4.125 C-4 3 -4 3 -5 1 C-3 0 -3 0 0 0 Z " fill="#243A3D" transform="translate(471,575)"/>
<path d="M0 0 C0.33 0 0.66 0 1 0 C2.25841946 6.74153283 3.26404456 13.13484138 3 20 C2.67 19.01 2.34 18.02 2 17 C1.34 17 0.68 17 0 17 C-0.33 17.66 -0.66 18.32 -1 19 C-1.02697137 16.39576408 -1.04682489 13.79180756 -1.0625 11.1875 C-1.07087891 10.44951172 -1.07925781 9.71152344 -1.08789062 8.95117188 C-1.10259828 5.70077932 -1.03531702 3.10595105 0 0 Z " fill="#244042" transform="translate(507,735)"/>
<path d="M0 0 C0.99 0.33 1.98 0.66 3 1 C2.319375 1.680625 1.63875 2.36125 0.9375 3.0625 C0.48117187 3.52140625 0.02484375 3.9803125 -0.4453125 4.453125 C-1.51317595 5.5156223 -2.59198111 6.56720051 -3.6796875 7.609375 C-7.95584784 11.75249924 -11.55738336 16.14502782 -15 21 C-15 16.84757243 -12.78609269 14.7406742 -10.3125 11.625 C-9.87744141 11.06039062 -9.44238281 10.49578125 -8.99414062 9.9140625 C-6.20967225 6.34994299 -3.25888452 3.13557538 0 0 Z " fill="#3A4A4C" transform="translate(578,665)"/>
<path d="M0 0 C0.66 0 1.32 0 2 0 C1.835 1.299375 1.67 2.59875 1.5 3.9375 C1.10347311 7.28947394 1.0252389 10.44418336 1.1875 13.8125 C1.25271307 17.20357951 1.19747498 17.74698518 -1 20.5625 C-1.66 21.036875 -2.32 21.51125 -3 22 C-3.45755719 14.37404682 -1.74536299 7.3970146 0 0 Z " fill="#13282C" transform="translate(525,536)"/>
<path d="M0 0 C0.99 0.33 1.98 0.66 3 1 C2.89040282 4.29237055 2.75971069 7.58356887 2.625 10.875 C2.5940625 11.81214844 2.563125 12.74929688 2.53125 13.71484375 C2.49257813 14.61074219 2.45390625 15.50664063 2.4140625 16.4296875 C2.3826416 17.25710449 2.3512207 18.08452148 2.31884766 18.93701172 C2 21 2 21 0 23 C0 15.41 0 7.82 0 0 Z " fill="#01151D" transform="translate(504,834)"/>
<path d="M0 0 C0 0.66 0 1.32 0 2 C-5.61 2 -11.22 2 -17 2 C-17.33 2.66 -17.66 3.32 -18 4 C-18 3.01 -18 2.02 -18 1 C-11.2681011 -1.95258723 -7.13444489 -2.3781483 0 0 Z " fill="#01161A" transform="translate(466,598)"/>
<path d="M0 0 C0.66 0 1.32 0 2 0 C2.96205088 6.37358711 3.10655578 12.55929529 3 19 C2.01 18.67 1.02 18.34 0 18 C0 12.06 0 6.12 0 0 Z " fill="#02191F" transform="translate(536,560)"/>
<path d="M0 0 C0.33 1.32 0.66 2.64 1 4 C-0.1196986 5.00593243 -1.2459412 6.0045849 -2.375 7 C-3.00148438 7.556875 -3.62796875 8.11375 -4.2734375 8.6875 C-6 10 -6 10 -8 10 C-8 9.34 -8 8.68 -8 8 C-8.99 7.67 -9.98 7.34 -11 7 C-7.37 4.69 -3.74 2.38 0 0 Z " fill="#1D3034" transform="translate(640,746)"/>
<path d="M0 0 C1.95468059 2.93202088 2.55258673 4.68004563 3.25 8.0625 C3.44078125 8.94035156 3.6315625 9.81820313 3.828125 10.72265625 C3.88484375 11.47417969 3.9415625 12.22570312 4 13 C3.34 13.66 2.68 14.32 2 15 C1.01 15 0.02 15 -1 15 C-1.18451025 4.44191344 -1.18451025 4.44191344 0 0 Z " fill="#053130" transform="translate(361,385)"/>
<path d="M0 0 C7.42857143 -0.28571429 7.42857143 -0.28571429 11 2 C10.67 2.99 10.34 3.98 10 5 C2.57142857 5.28571429 2.57142857 5.28571429 -1 3 C-0.67 2.01 -0.34 1.02 0 0 Z " fill="#152729" transform="translate(439,772)"/>
<path d="M0 0 C0.02692484 2.29160319 0.04636124 4.58329546 0.0625 6.875 C0.07410156 8.15117188 0.08570313 9.42734375 0.09765625 10.7421875 C0 14 0 14 -1 16 C-1.66 16 -2.32 16 -3 16 C-3 11.05 -3 6.1 -3 1 C-1 0 -1 0 0 0 Z " fill="#001417" transform="translate(505,591)"/>
<path d="M0 0 C4.95 0 9.9 0 15 0 C15 0.99 15 1.98 15 3 C9.3067505 4.18609365 5.57432514 3.66251802 0 2 C0 1.34 0 0.68 0 0 Z " fill="#021A1D" transform="translate(656,560)"/>
<path d="M0 0 C2.34770643 3.52155964 2.37669614 5.50771843 2.625 9.6875 C2.69976562 10.86699219 2.77453125 12.04648437 2.8515625 13.26171875 C2.90054687 14.16535156 2.94953125 15.06898438 3 16 C2.34 16 1.68 16 1 16 C1 15.34 1 14.68 1 14 C0.34 14 -0.32 14 -1 14 C-1.02685938 11.85423363 -1.04633088 9.70837355 -1.0625 7.5625 C-1.07410156 6.36753906 -1.08570313 5.17257812 -1.09765625 3.94140625 C-1 1 -1 1 0 0 Z " fill="#053935" transform="translate(355,352)"/>
<path d="M0 0 C9.25995054 2.58064195 17.35513402 6.95241487 24 14 C23.01 14.33 22.02 14.66 21 15 C19.4140625 13.8125 19.4140625 13.8125 17.625 12 C12.40523576 7.14190482 6.32376098 4.17152037 0 1 C0 0.67 0 0.34 0 0 Z " fill="#465457" transform="translate(354,720)"/>
<path d="M0 0 C3.375 -0.125 3.375 -0.125 7 0 C7.66 0.66 8.32 1.32 9 2 C8.625 4.625 8.625 4.625 8 7 C5.0280615 5.87548273 2.66559313 4.77706209 0 3 C0 2.01 0 1.02 0 0 Z " fill="#0A2228" transform="translate(400,573)"/>
<path d="M0 0 C4.95 0 9.9 0 15 0 C15 0.99 15 1.98 15 3 C9.31150252 4.49697302 4.58190932 3.3348044 -1 2 C-0.67 1.34 -0.34 0.68 0 0 Z " fill="#011618" transform="translate(688,552)"/>
<path d="M0 0 C0.33 0 0.66 0 1 0 C1.93353742 5.67691673 2.08772448 9.51972325 0 15 C0.33 15.99 0.66 16.98 1 18 C0.01 18.99 -0.98 19.98 -2 21 C-3.1875 19.5 -3.1875 19.5 -4 17 C-3.31082102 15.06373524 -2.60956302 13.12938259 -1.8046875 11.23828125 C-0.49184686 7.5865449 -0.25847472 3.850382 0 0 Z " fill="#2B4143" transform="translate(524,403)"/>
<path d="M0 0 C2.56429958 3.84644938 1.82956753 4.53309792 1 9 C0.72422344 12.9545042 0.58628465 16.91391348 0.4375 20.875 C0.39431641 21.94492187 0.35113281 23.01484375 0.30664062 24.1171875 C0.20107183 26.74467754 0.09896209 29.37225422 0 32 C-0.33 32 -0.66 32 -1 32 C-1.02469321 27.7641643 -1.04285671 23.52836658 -1.05493164 19.29248047 C-1.05996474 17.8510668 -1.06679173 16.40965824 -1.07543945 14.96826172 C-1.08754983 12.89809915 -1.09323847 10.82800399 -1.09765625 8.7578125 C-1.10289307 7.5114502 -1.10812988 6.26508789 -1.11352539 4.98095703 C-1 2 -1 2 0 0 Z " fill="#173032" transform="translate(558,320)"/>
<path d="M0 0 C3.15058384 1.44822713 6.29456973 2.91024622 9.4375 4.375 C10.78424805 4.99375 10.78424805 4.99375 12.15820312 5.625 C13.01220703 6.02460938 13.86621094 6.42421875 14.74609375 6.8359375 C15.93223267 7.38580322 15.93223267 7.38580322 17.14233398 7.94677734 C19 9 19 9 20 11 C16.98606654 10.03903571 13.99083564 9.03056653 11 8 C10.07960938 7.68675781 9.15921875 7.37351562 8.2109375 7.05078125 C7.31632812 6.72464844 6.42171875 6.39851563 5.5 6.0625 C4.6646875 5.76472656 3.829375 5.46695312 2.96875 5.16015625 C1 4 1 4 0.37695312 1.92749023 C0.25255859 1.29141846 0.12816406 0.65534668 0 0 Z " fill="#3D5051" transform="translate(467,471)"/>
<path d="M0 0 C0.99 0 1.98 0 3 0 C4.66960761 2.39280663 6.12980193 4.72115936 7.5625 7.25 C7.96146484 7.93191406 8.36042969 8.61382813 8.77148438 9.31640625 C9.86723379 11.20058305 10.93625035 13.09763859 12 15 C12.44214844 15.75796875 12.88429688 16.5159375 13.33984375 17.296875 C14 19 14 19 13 22 C12.56429688 21.16597656 12.12859375 20.33195313 11.6796875 19.47265625 C8.1089055 12.72526949 4.40832584 6.2491652 0 0 Z " fill="#4C5C5F" transform="translate(466,664)"/>
<path d="M0 0 C2.48222825 1.13871197 4.89378543 2.30456915 7.3125 3.5625 C8.28026367 4.0565332 8.28026367 4.0565332 9.26757812 4.56054688 C10.84785228 5.36824255 12.42432105 6.18337613 14 7 C9.87824493 8.37391836 7.310741 6.79526977 3.5 5.1875 C2.82324219 4.91357422 2.14648438 4.63964844 1.44921875 4.35742188 C-1.58975739 3.10766541 -4.25772926 1.8281805 -7 0 C-4.21180836 -1.39409582 -3.00264629 -0.8324578 0 0 Z " fill="#48595A" transform="translate(475,783)"/>
<path d="M0 0 C0.33 0 0.66 0 1 0 C2.33257403 10.55808656 2.33257403 10.55808656 1 15 C0.01 15 -0.98 15 -2 15 C-3.08056059 11.02840314 -2.85815614 8.57446843 -1.5625 4.6875 C-1.27503906 3.80449219 -0.98757813 2.92148437 -0.69140625 2.01171875 C-0.46324219 1.34785156 -0.23507812 0.68398438 0 0 Z " fill="#031B1F" transform="translate(503,488)"/>
<path d="M0 0 C5.75 1.625 5.75 1.625 8 5 C7.67 5.66 7.34 6.32 7 7 C1.125 6.125 1.125 6.125 0 5 C-0.04063832 3.33382885 -0.042721 1.66611905 0 0 Z " fill="#0D2124" transform="translate(454,563)"/>
<path d="M0 0 C4.75 0.75 4.75 0.75 7 3 C6.67 3.33 6.34 3.66 6 4 C6.66 4.33 7.32 4.66 8 5 C8 5.66 8 6.32 8 7 C2.46153846 6.50769231 2.46153846 6.50769231 0.125 3.9375 C-0.431875 2.9784375 -0.431875 2.9784375 -1 2 C-0.67 1.34 -0.34 0.68 0 0 Z " fill="#102226" transform="translate(429,549)"/>
<path d="M0 0 C2.97 0.33 5.94 0.66 9 1 C9 1.99 9 2.98 9 4 C5.37 4 1.74 4 -2 4 C-1.34 2.68 -0.68 1.36 0 0 Z " fill="#04191B" transform="translate(624,804)"/>
<path d="M0 0 C0 1.32 0 2.64 0 4 C-3.72965139 6.03435531 -5.66905042 7 -10 7 C-8.60449526 2.81348579 -4.64858615 0 0 0 Z " fill="#162A2D" transform="translate(603,649)"/>
<path d="M0 0 C0.33 0 0.66 0 1 0 C1.20413361 5.73842251 1.27141454 10.60539047 -1 16 C-1.66 15.67 -2.32 15.34 -3 15 C-2.66666667 12.66666667 -2.33333333 10.33333333 -2 8 C-1.835 6.72125 -1.67 5.4425 -1.5 4.125 C-1 1 -1 1 0 0 Z " fill="#031B1F" transform="translate(488,423)"/>
<path d="M0 0 C4.95 1.98 4.95 1.98 10 4 C9.67 4.66 9.34 5.32 9 6 C7.741875 5.87625 6.48375 5.7525 5.1875 5.625 C4.12595703 5.52058594 4.12595703 5.52058594 3.04296875 5.4140625 C1 5 1 5 -2 3 C-1.34 3 -0.68 3 0 3 C0 2.01 0 1.02 0 0 Z " fill="#23383C" transform="translate(461,777)"/>
<path d="M0 0 C0.66 0.33 1.32 0.66 2 1 C2.05418326 3.08304538 2.09287551 5.16649768 2.125 7.25 C2.14820313 8.41015625 2.17140625 9.5703125 2.1953125 10.765625 C2.0103949 13.82786046 1.60823023 15.44202751 0 18 C-1.50875941 11.96496237 -0.64186094 6.10261631 0 0 Z " fill="#031A1D" transform="translate(550,279)"/>
<path d="M0 0 C0.33 1.65 0.66 3.3 1 5 C-0.98 5.66 -2.96 6.32 -5 7 C-5.66 5.35 -6.32 3.7 -7 2 C-2.25 0 -2.25 0 0 0 Z " fill="#1E3336" transform="translate(615,761)"/>
<path d="M0 0 C2.33944736 0.28730055 4.6739143 0.61936779 7 1 C6.67 2.65 6.34 4.3 6 6 C4.35 5.67 2.7 5.34 1 5 C1 4.01 1 3.02 1 2 C0.34 1.67 -0.32 1.34 -1 1 C-0.67 0.67 -0.34 0.34 0 0 Z " fill="#0E1F21" transform="translate(413,762)"/>
<path d="M0 0 C3.66060821 0.58536753 5.54535164 2.083239 8.25 4.5625 C8.95640625 5.20316406 9.6628125 5.84382812 10.390625 6.50390625 C10.92171875 6.99761719 11.4528125 7.49132812 12 8 C11.01 9.485 11.01 9.485 10 11 C8.33035479 9.35718838 6.6643536 7.71067239 5 6.0625 C4.071875 5.14597656 3.14375 4.22945312 2.1875 3.28515625 C0 1 0 1 0 0 Z " fill="#15292E" transform="translate(376,734)"/>
<path d="M0 0 C0.66 0.33 1.32 0.66 2 1 C-3.49349789 4.81492909 -8.95092327 8.14043646 -15 11 C-15.66 10.34 -16.32 9.68 -17 9 C-15.85660156 8.43410156 -14.71320312 7.86820313 -13.53515625 7.28515625 C-12.04421862 6.54437592 -10.55333604 5.80348478 -9.0625 5.0625 C-8.30775391 4.68931641 -7.55300781 4.31613281 -6.77539062 3.93164062 C-6.05673828 3.57392578 -5.33808594 3.21621094 -4.59765625 2.84765625 C-3.93258057 2.51773682 -3.26750488 2.18781738 -2.58227539 1.84790039 C-1.00380637 1.10022992 -1.00380637 1.10022992 0 0 Z " fill="#515F5F" transform="translate(679,723)"/>
<path d="M0 0 C0.99 0.33 1.98 0.66 3 1 C2.62669176 3.72574271 2.20805399 4.80822085 0.15234375 6.703125 C-0.94400391 7.46882812 -0.94400391 7.46882812 -2.0625 8.25 C-2.79597656 8.77078125 -3.52945313 9.2915625 -4.28515625 9.828125 C-4.85105469 10.21484375 -5.41695312 10.6015625 -6 11 C-6 7 -6 7 -3.5625 4.375 C-2.716875 3.59125 -1.87125 2.8075 -1 2 C-0.67 1.34 -0.34 0.68 0 0 Z " fill="#132C31" transform="translate(577,720)"/>
<path d="M0 0 C0.33 0 0.66 0 1 0 C1 4.62 1 9.24 1 14 C0.34 14 -0.32 14 -1 14 C-2.31177829 5.63741339 -2.31177829 5.63741339 -2 2 C-1.34 1.34 -0.68 0.68 0 0 Z " fill="#021B1A" transform="translate(751,683)"/>
<path d="M0 0 C6.53279418 2.96017236 11.81778634 8.24945621 16 14 C13 14 13 14 11.1328125 12.20703125 C10.47023438 11.41683594 9.80765625 10.62664062 9.125 9.8125 C6.19712841 6.38764652 3.23471055 3.13362585 0 0 Z " fill="#586669" transform="translate(386,498)"/>
<path d="M0 0 C3.09998746 0.33214151 4.0545012 1.0545012 6.3125 3.3125 C8 6 8 6 7.75 8.3125 C7.5025 8.869375 7.255 9.42625 7 10 C4.4000702 7.48972295 2.00908773 5.0136316 0 2 C0 1.34 0 0.68 0 0 Z " fill="#193037" transform="translate(426,412)"/>
<path d="M0 0 C2.35448165 2.55068845 2.98327924 3.71017358 3.1875 7.25 C3.125625 8.1575 3.06375 9.065 3 10 C2.01 10.33 1.02 10.66 0 11 C-1.62651522 7.74696956 -1.11453156 4.60774398 -1 1 C-0.67 0.67 -0.34 0.34 0 0 Z " fill="#0F2325" transform="translate(518,369)"/>
<path d="M0 0 C3.96 0 7.92 0 12 0 C12 1.32 12 2.64 12 4 C6.06 3.01 6.06 3.01 0 2 C0 1.34 0 0.68 0 0 Z " fill="#02191B" transform="translate(656,456)"/>
<path d="M0 0 C0 2.62113708 -0.31292445 4.50935112 -1 7 C-1.66 7 -2.32 7 -3 7 C-3 5.68 -3 4.36 -3 3 C-4.98 3.33 -6.96 3.66 -9 4 C-9.33 3.34 -9.66 2.68 -10 2 C-8.71211992 1.46987262 -7.41953322 0.9511671 -6.125 0.4375 C-5.40570312 0.14746094 -4.68640625 -0.14257812 -3.9453125 -0.44140625 C-2 -1 -2 -1 0 0 Z " fill="#1D3A3B" transform="translate(653,681)"/>
<path d="M0 0 C6.625 -0.25 6.625 -0.25 10 2 C9.67 2.66 9.34 3.32 9 4 C3.375 4.25 3.375 4.25 0 2 C0 1.34 0 0.68 0 0 Z " fill="#061618" transform="translate(398,631)"/>
<path d="M0 0 C2.91517292 1.07401108 4.77810176 1.77810176 7 4 C6.01 4.33 5.02 4.66 4 5 C3.34 4.67 2.68 4.34 2 4 C1.67 4.99 1.34 5.98 1 7 C-0.98 6.01 -2.96 5.02 -5 4 C-5 3.67 -5 3.34 -5 3 C-3.35 2.67 -1.7 2.34 0 2 C0 1.34 0 0.68 0 0 Z " fill="#1C393E" transform="translate(398,569)"/>
<path d="M0 0 C1.37478516 0.01740234 1.37478516 0.01740234 2.77734375 0.03515625 C3.69644531 0.04417969 4.61554687 0.05320312 5.5625 0.0625 C6.27277344 0.07410156 6.98304688 0.08570313 7.71484375 0.09765625 C7.38484375 1.41765625 7.05484375 2.73765625 6.71484375 4.09765625 C0.08984375 3.34765625 0.08984375 3.34765625 -3.28515625 1.09765625 C-2.28515625 0.09765625 -2.28515625 0.09765625 0 0 Z " fill="#022020" transform="translate(722.28515625,543.90234375)"/>
<path d="M0 0 C0 2.31 0 4.62 0 7 C-1.32 7.33 -2.64 7.66 -4 8 C-4.33 5.69 -4.66 3.38 -5 1 C-2 0 -2 0 0 0 Z " fill="#072024" transform="translate(536,239)"/>
<path d="M0 0 C3.96 0 7.92 0 12 0 C10.68 0.33 9.36 0.66 8 1 C8.33 1.99 8.66 2.98 9 4 C2.25 3.125 2.25 3.125 0 2 C0 1.34 0 0.68 0 0 Z " fill="#1D2F31" transform="translate(390,630)"/>
<path d="M0 0 C4.455 1.98 4.455 1.98 9 4 C7.02 4.99 7.02 4.99 5 6 C4.01 5.34 3.02 4.68 2 4 C2.33 4.99 2.66 5.98 3 7 C1.68 6.67 0.36 6.34 -1 6 C-0.67 4.02 -0.34 2.04 0 0 Z " fill="#152F35" transform="translate(409,575)"/>
<path d="M0 0 C2.125 0.375 2.125 0.375 4 1 C3.42655063 3.86724686 3.1385485 4.8614515 1 7 C0.01 7 -0.98 7 -2 7 C-2.125 4.625 -2.125 4.625 -2 2 C-1.34 1.34 -0.68 0.68 0 0 Z " fill="#0C1C21" transform="translate(590,555)"/>
<path d="M0 0 C0.66 0.33 1.32 0.66 2 1 C1.505 1.5775 1.01 2.155 0.5 2.75 C-1.36980013 5.10400629 -1.36980013 5.10400629 -1 9 C-1.99 9.495 -1.99 9.495 -3 10 C-3 9.01 -3 8.02 -3 7 C-3.99 6.67 -4.98 6.34 -6 6 C-4 4 -2 2 0 0 Z " fill="#1E3034" transform="translate(597,549)"/>
<path d="M0 0 C0.99 0 1.98 0 3 0 C3.33 1.98 3.66 3.96 4 6 C2.68 6.33 1.36 6.66 0 7 C-0.38133299 5.0085944 -0.71325582 3.00720923 -1 1 C-0.67 0.67 -0.34 0.34 0 0 Z " fill="#091F22" transform="translate(440,441)"/>
<path d="M0 0 C1.875 0.25 1.875 0.25 4 1 C5.25 3.0625 5.25 3.0625 6 5 C4.02 5.99 4.02 5.99 2 7 C0 5 0 5 -0.125 2.375 C-0.08375 1.59125 -0.0425 0.8075 0 0 Z " fill="#091E23" transform="translate(311,739)"/>
<path d="M0 0 C1.65 0 3.3 0 5 0 C2.525 4.455 2.525 4.455 0 9 C-0.33 9 -0.66 9 -1 9 C-1.125 2.25 -1.125 2.25 0 0 Z " fill="#112C31" transform="translate(523,713)"/>
<path d="M0 0 C0.33 1.32 0.66 2.64 1 4 C-0.258125 3.87625 -1.51625 3.7525 -2.8125 3.625 C-3.87404297 3.52058594 -3.87404297 3.52058594 -4.95703125 3.4140625 C-7 3 -7 3 -10 1 C-6.61981469 -0.04005702 -3.5219721 -0.08004482 0 0 Z " fill="#1C3439" transform="translate(349,674)"/>
<path d="M0 0 C1.23556641 0.01740234 1.23556641 0.01740234 2.49609375 0.03515625 C3.32238281 0.04417969 4.14867187 0.05320312 5 0.0625 C5.63808594 0.07410156 6.27617187 0.08570313 6.93359375 0.09765625 C6.60359375 1.08765625 6.27359375 2.07765625 5.93359375 3.09765625 C3.62359375 3.42765625 1.31359375 3.75765625 -1.06640625 4.09765625 C-1.06640625 3.43765625 -1.06640625 2.77765625 -1.06640625 2.09765625 C-1.72640625 1.76765625 -2.38640625 1.43765625 -3.06640625 1.09765625 C-2.06640625 0.09765625 -2.06640625 0.09765625 0 0 Z " fill="#02141A" transform="translate(322.06640625,663.90234375)"/>
<path d="M0 0 C0.66 0.33 1.32 0.66 2 1 C0.04761147 3.00612399 -1.91137822 5.00492433 -3.875 7 C-4.43058594 7.57234375 -4.98617187 8.1446875 -5.55859375 8.734375 C-7.00134404 10.19450782 -8.4974374 11.60149298 -10 13 C-10.66 13 -11.32 13 -12 13 C-10.86528532 9.59585597 -9.82774013 8.75723352 -7.125 6.5 C-4.64584653 4.41421775 -2.2560424 2.32698713 0 0 Z " fill="#D7DBDA" transform="translate(561,581)"/>
<path d="M0 0 C0.33 0 0.66 0 1 0 C1.33 5.61 1.66 11.22 2 17 C1.01 16.67 0.02 16.34 -1 16 C-0.67 10.72 -0.34 5.44 0 0 Z " fill="#1A4A45" transform="translate(316,432)"/>
<path d="M0 0 C0.66 0 1.32 0 2 0 C2 3.63 2 7.26 2 11 C1.34 11 0.68 11 0 11 C-0.19406478 9.35492782 -0.38007935 7.70890406 -0.5625 6.0625 C-0.66691406 5.14597656 -0.77132812 4.22945313 -0.87890625 3.28515625 C-0.91886719 2.53105469 -0.95882812 1.77695312 -1 1 C-0.67 0.67 -0.34 0.34 0 0 Z " fill="#001619" transform="translate(534,437)"/>
<path d="M0 0 C0 0.99 0 1.98 0 3 C-2.31 3 -4.62 3 -7 3 C-7.33 2.01 -7.66 1.02 -8 0 C-5.13822943 -1.43088528 -3.06624227 -0.59991697 0 0 Z " fill="#04171C" transform="translate(391,797)"/>
<path d="M0 0 C-7.71428571 4 -7.71428571 4 -12 4 C-11.3125 2.0625 -11.3125 2.0625 -10 0 C-6.39887139 -1.2652614 -3.65254051 -0.9392247 0 0 Z " fill="#1F3C3C" transform="translate(666,683)"/>
<path d="M0 0 C3.63 0 7.26 0 11 0 C10.34 1.32 9.68 2.64 9 4 C4.545 3.01 4.545 3.01 0 2 C0 1.34 0 0.68 0 0 Z " fill="#001618" transform="translate(680,672)"/>
<path d="M0 0 C3.3 0 6.6 0 10 0 C10 0.66 10 1.32 10 2 C6.7 2.33 3.4 2.66 0 3 C0 2.01 0 1.02 0 0 Z " fill="#05181D" transform="translate(337,672)"/>
<path d="M0 0 C0.66 0.33 1.32 0.66 2 1 C-3.94 6.445 -3.94 6.445 -10 12 C-10.66 11.34 -11.32 10.68 -12 10 C-8.04 6.7 -4.08 3.4 0 0 Z " fill="#495759" transform="translate(639,510)"/>
<path d="M0 0 C-2.90600261 1.25664978 -4.79604584 2 -8 2 C-8 2.66 -8 3.32 -8 4 C-9.32 4.33 -10.64 4.66 -12 5 C-12 4.34 -12 3.68 -12 3 C-12.66 2.67 -13.32 2.34 -14 2 C-12.42085985 1.46658816 -10.83645613 0.94874237 -9.25 0.4375 C-8.36828125 0.14746094 -7.4865625 -0.14257812 -6.578125 -0.44140625 C-3.92165684 -1.01697435 -2.52968894 -0.89248371 0 0 Z " fill="#254041" transform="translate(568,489)"/>
<path d="M0 0 C2.625 0.375 2.625 0.375 5 1 C5.33 1.99 5.66 2.98 6 4 C2.7 4 -0.6 4 -4 4 C-2.66666667 2.66666667 -1.33333333 1.33333333 0 0 Z " fill="#0A1D24" transform="translate(368,788)"/>
<path d="M0 0 C1.32 0.33 2.64 0.66 4 1 C4 2.98 4 4.96 4 7 C1.69 6.34 -0.62 5.68 -3 5 C-2.01 3.35 -1.02 1.7 0 0 Z " fill="#182A2C" transform="translate(420,764)"/>
<path d="M0 0 C0.66 0 1.32 0 2 0 C1.66009167 5.37992836 1.31442207 9.53273547 -2 14 C-3.49341969 11.01316063 -2.40648676 9.04839022 -1.5625 5.875 C-1.27503906 4.77929688 -0.98757813 3.68359375 -0.69140625 2.5546875 C-0.46324219 1.71164062 -0.23507812 0.86859375 0 0 Z " fill="#314E4A" transform="translate(758,654)"/>
<path d="M0 0 C1.98 0 3.96 0 6 0 C5.34 1.32 4.68 2.64 4 4 C2.68 4 1.36 4 0 4 C0 2.68 0 1.36 0 0 Z " fill="#07191F" transform="translate(291,648)"/>
<path d="M0 0 C0 0.99 0 1.98 0 3 C0.99 3.33 1.98 3.66 3 4 C-1.19161906 4 -4.88857686 3.86556277 -9 3 C-5.73209435 0.82139623 -3.91954654 0 0 0 Z " fill="#304446" transform="translate(623,641)"/>
<path d="M0 0 C2.64 0 5.28 0 8 0 C7.67 0.99 7.34 1.98 7 3 C3.71023192 4.09658936 2.28696233 3.79953138 -1 3 C-0.67 2.01 -0.34 1.02 0 0 Z " fill="#041D21" transform="translate(304,544)"/>
<path d="M0 0 C3.24299151 2.38957269 5.50902342 4.2047869 7 8 C6.01 9.485 6.01 9.485 5 11 C4.15841464 9.73461631 3.32700252 8.46246221 2.5 7.1875 C1.80390625 6.12595703 1.80390625 6.12595703 1.09375 5.04296875 C0 3 0 3 0 0 Z " fill="#2F3F45" transform="translate(401,512)"/>
<path d="M0 0 C0.66 1.32 1.32 2.64 2 4 C-3.445 5.485 -3.445 5.485 -9 7 C-5.88742431 3.88742431 -3.71872691 2.0659594 0 0 Z " fill="#273D3F" transform="translate(555,478)"/>
<path d="M0 0 C0.6875 1.8125 0.6875 1.8125 1 4 C-0.3125 5.75 -0.3125 5.75 -2 7 C-2.66 7 -3.32 7 -4 7 C-4.33 8.32 -4.66 9.64 -5 11 C-5.66 9.68 -6.32 8.36 -7 7 C-5.47005208 5.76302083 -3.94010417 4.52604167 -2.41015625 3.2890625 C-0.86733563 2.0333609 -0.86733563 2.0333609 0 0 Z " fill="#0A2227" transform="translate(578,464)"/>
<path d="M0 0 C-2.33405265 2.33405265 -4.50451742 3.31194287 -7.5 4.6875 C-8.4796875 5.14511719 -9.459375 5.60273437 -10.46875 6.07421875 C-11.3040625 6.37972656 -12.139375 6.68523438 -13 7 C-13.66 6.67 -14.32 6.34 -15 6 C-13.07010782 4.80017556 -11.13080772 3.61547182 -9.1875 2.4375 C-8.10855469 1.77621094 -7.02960937 1.11492188 -5.91796875 0.43359375 C-3 -1 -3 -1 0 0 Z " fill="#435252" transform="translate(575,779)"/>
<path d="M0 0 C-1.50223584 4.20626034 -4.28550034 5.73900021 -8 8 C-8.66 7.67 -9.32 7.34 -10 7 C-8.71372289 5.82739389 -7.42080217 4.6620717 -6.125 3.5 C-5.04605469 2.52546875 -5.04605469 2.52546875 -3.9453125 1.53125 C-2 0 -2 0 0 0 Z " fill="#1E3033" transform="translate(628,521)"/>
<path d="M0 0 C1.65 0 3.3 0 5 0 C3.60667426 3.36720387 2.0210714 4.9859524 -1 7 C-2 4 -2 4 -1.0625 1.8125 C-0.5365625 0.9153125 -0.5365625 0.9153125 0 0 Z " fill="#142C30" transform="translate(578,496)"/>
<path d="M0 0 C0.66 0 1.32 0 2 0 C1.92909865 3.07454047 1.7524935 6.01122299 1 9 C-1.5625 11.0625 -1.5625 11.0625 -4 12 C-3.52309796 10.37433394 -3.04340334 8.74948689 -2.5625 7.125 C-2.29566406 6.22007812 -2.02882813 5.31515625 -1.75390625 4.3828125 C-1 2 -1 2 0 0 Z " fill="#25403F" transform="translate(709,466)"/>
<path d="M0 0 C1.32 0.33 2.64 0.66 4 1 C3.67 2.98 3.34 4.96 3 7 C2.01 6.67 1.02 6.34 0 6 C0 4.02 0 2.04 0 0 Z " fill="#061C21" transform="translate(560,408)"/>
<path d="M0 0 C4.13621084 3.3810038 7.81316569 6.66590534 11 11 C8 11 8 11 5.95703125 9.1015625 C5.24933594 8.28429687 4.54164063 7.46703125 3.8125 6.625 C3.09707031 5.81289063 2.38164062 5.00078125 1.64453125 4.1640625 C0 2 0 2 0 0 Z " fill="#616E6E" transform="translate(402,388)"/>
<path d="M0 0 C0.66 0.33 1.32 0.66 2 1 C-1.3 3.64 -4.6 6.28 -8 9 C-8.99 8.34 -9.98 7.68 -11 7 C-10.28972656 6.57847656 -9.57945312 6.15695312 -8.84765625 5.72265625 C-7.92855469 5.17480469 -7.00945313 4.62695312 -6.0625 4.0625 C-5.14597656 3.51722656 -4.22945312 2.97195313 -3.28515625 2.41015625 C-1.11587323 1.19267827 -1.11587323 1.19267827 0 0 Z " fill="#415052" transform="translate(675,619)"/>
<path d="M0 0 C0.66 0 1.32 0 2 0 C1.67 3.63 1.34 7.26 1 11 C0.34 11 -0.32 11 -1 11 C-1.02688151 9.35425434 -1.04634123 7.70838587 -1.0625 6.0625 C-1.07410156 5.14597656 -1.08570313 4.22945312 -1.09765625 3.28515625 C-1 1 -1 1 0 0 Z " fill="#00181D" transform="translate(497,621)"/>
<path d="M0 0 C0.66 0.66 1.32 1.32 2 2 C-2.625 6 -2.625 6 -6 6 C-6.33 5.01 -6.66 4.02 -7 3 C-4.69 2.01 -2.38 1.02 0 0 Z " fill="#02161B" transform="translate(376,558)"/>
<path d="M0 0 C2.02350324 3.03525486 2.32124018 4.19426202 2.625 7.6875 C2.69976562 8.49574219 2.77453125 9.30398438 2.8515625 10.13671875 C2.90054687 10.75160156 2.94953125 11.36648438 3 12 C2.01 11.67 1.02 11.34 0 11 C0 7.37 0 3.74 0 0 Z " fill="#2B4C4B" transform="translate(474,373)"/>
<path d="M0 0 C0.99 1.32 1.98 2.64 3 4 C2.1875 7.25 2.1875 7.25 1 10 C0.34 10 -0.32 10 -1 10 C-0.67 6.7 -0.34 3.4 0 0 Z " fill="#0F2C30" transform="translate(524,814)"/>
<path d="M0 0 C0.66 0.33 1.32 0.66 2 1 C1.67 2.98 1.34 4.96 1 7 C0.01 6.67 -0.98 6.34 -2 6 C-2.6875 3.9375 -2.6875 3.9375 -3 2 C-2.01 1.34 -1.02 0.68 0 0 Z " fill="#081A1E" transform="translate(486,751)"/>
<path d="M0 0 C0.33 0 0.66 0 1 0 C1.19491452 1.45736087 1.38069358 2.91594593 1.5625 4.375 C1.66691406 5.18710937 1.77132813 5.99921875 1.87890625 6.8359375 C2 9 2 9 1 11 C0.34 11 -0.32 11 -1 11 C-1.02688151 9.35425434 -1.04634123 7.70838587 -1.0625 6.0625 C-1.07410156 5.14597656 -1.08570313 4.22945312 -1.09765625 3.28515625 C-1 1 -1 1 0 0 Z " fill="#011016" transform="translate(281,685)"/>
<path d="M0 0 C0 1.32 0 2.64 0 4 C-2.31 4 -4.62 4 -7 4 C-7 3.34 -7 2.68 -7 2 C-4.35261084 0.5393715 -3.10551666 0 0 0 Z " fill="#001516" transform="translate(680,668)"/>
<path d="M0 0 C1.35015859 4.05047576 0.62084998 6.7920168 0 11 C-0.66 11 -1.32 11 -2 11 C-2.05399736 9.54207116 -2.09279177 8.08357288 -2.125 6.625 C-2.15980469 5.40683594 -2.15980469 5.40683594 -2.1953125 4.1640625 C-2 2 -2 2 0 0 Z " fill="#011B21" transform="translate(498,516)"/>
<path d="M0 0 C0.33 0 0.66 0 1 0 C1 3.3 1 6.6 1 10 C0.01 10 -0.98 10 -2 10 C-2.17942163 6.05272412 -2.09350689 3.4019487 0 0 Z " fill="#031619" transform="translate(527,643)"/>
<path d="M0 0 C2 3 2 3 1.7578125 5.26171875 C1.54898438 6.06222656 1.34015625 6.86273437 1.125 7.6875 C0.92132812 8.49574219 0.71765625 9.30398438 0.5078125 10.13671875 C0.25644531 11.05904297 0.25644531 11.05904297 0 12 C-0.33 12 -0.66 12 -1 12 C-1.14285714 3.42857143 -1.14285714 3.42857143 0 0 Z " fill="#395255" transform="translate(523,546)"/>
<path d="M0 0 C0 1.98 0 3.96 0 6 C-0.99 6.33 -1.98 6.66 -3 7 C-3 6.01 -3 5.02 -3 4 C-3.99 3.67 -4.98 3.34 -6 3 C-2.25 0 -2.25 0 0 0 Z " fill="#1A3336" transform="translate(612,473)"/>
<path d="M0 0 C2 3 2 3 1.625 5.1875 C1.41875 5.785625 1.2125 6.38375 1 7 C0.34 7 -0.32 7 -1 7 C-1.66 5.02 -2.32 3.04 -3 1 C-2.01 0.67 -1.02 0.34 0 0 Z " fill="#172F32" transform="translate(443,447)"/>
<path d="M0 0 C0.99 0.495 0.99 0.495 2 1 C2.625 4.0625 2.625 4.0625 3 7 C2.01 7.495 2.01 7.495 1 8 C0.67 5.36 0.34 2.72 0 0 Z M3 3 C3.99 3 4.98 3 6 3 C5.67 4.32 5.34 5.64 5 7 C5 6.01 5 5.02 5 4 C4.34 3.67 3.68 3.34 3 3 Z " fill="#324546" transform="translate(522,392)"/>
<path d="M0 0 C2.00293347 3.00440021 2.49271626 4.70993945 3.125 8.1875 C3.37636719 9.53908203 3.37636719 9.53908203 3.6328125 10.91796875 C3.75398438 11.60503906 3.87515625 12.29210937 4 13 C3.01 12.67 2.02 12.34 1 12 C0.67 8.04 0.34 4.08 0 0 Z " fill="#24524E" transform="translate(361,385)"/>
<path d="M0 0 C0.33 0 0.66 0 1 0 C1.33 4.29 1.66 8.58 2 13 C1.34 13 0.68 13 0 13 C-1.0161692 8.37078475 -0.83796731 4.65537393 0 0 Z " fill="#22514C" transform="translate(356,355)"/>
<path d="M0 0 C0.99 0 1.98 0 3 0 C2.67 0.66 2.34 1.32 2 2 C2 2.33 2 2.66 2 3 C1.67 3.99 1.34 4.98 1 6 C-0.98 5.01 -2.96 4.02 -5 3 C-4.360625 2.690625 -3.72125 2.38125 -3.0625 2.0625 C-1.06389179 1.1654837 -1.06389179 1.1654837 0 0 Z " fill="#223336" transform="translate(412,761)"/>
<path d="M0 0 C1.98 0.99 1.98 0.99 4 2 C4 6 4 6 3 9 C1.5 7.6875 1.5 7.6875 0 6 C0 4 0 2 0 0 Z " fill="#1A373D" transform="translate(420,581)"/>
<path d="M0 0 C1.62490954 -0.02698189 3.24994633 -0.04638757 4.875 -0.0625 C5.77992188 -0.07410156 6.68484375 -0.08570313 7.6171875 -0.09765625 C10 0 10 0 12 1 C12 1.66 12 2.32 12 3 C6.06 2.01 6.06 2.01 0 1 C0 0.67 0 0.34 0 0 Z " fill="#1A373B" transform="translate(331,555)"/>
<path d="M0 0 C0.66 0.33 1.32 0.66 2 1 C2 3.31 2 5.62 2 8 C1.34 8 0.68 8 0 8 C-0.38063221 5.6739143 -0.71269945 3.33944736 -1 1 C-0.67 0.67 -0.34 0.34 0 0 Z " fill="#000E11" transform="translate(534,513)"/>
<path d="M0 0 C1.98 0 3.96 0 6 0 C6 1.32 6 2.64 6 4 C4.02 3.34 2.04 2.68 0 2 C0 1.34 0 0.68 0 0 Z " fill="#031E1F" transform="translate(679,448)"/>
<path d="M0 0 C0.33 0.66 0.66 1.32 1 2 C1.66 2.33 2.32 2.66 3 3 C1.02 3.99 1.02 3.99 -1 5 C-2.65 3.68 -4.3 2.36 -6 1 C-4 0 -4 0 0 0 Z " fill="#113937" transform="translate(342,440)"/>
<path d="M0 0 C0.33 0 0.66 0 1 0 C2.10228696 4.40914783 2.07654536 8.48382401 2 13 C1.67 13 1.34 13 1 13 C0.855625 12.2575 0.71125 11.515 0.5625 10.75 C0.0636926 8.09581805 0.0636926 8.09581805 -0.625 5.9375 C-1.06506291 3.66384163 -0.70205558 2.18417292 0 0 Z " fill="#3F585A" transform="translate(508,840)"/>
<path d="M0 0 C-0.33 0.99 -0.66 1.98 -1 3 C-2.65 3 -4.3 3 -6 3 C-6 2.01 -6 1.02 -6 0 C-3.50907189 -1.24546405 -2.58919267 -0.7767578 0 0 Z " fill="#091A1E" transform="translate(412,760)"/>
<path d="M0 0 C1.32 0 2.64 0 4 0 C4.33 0.99 4.66 1.98 5 3 C3.35 3.66 1.7 4.32 0 5 C0 3.35 0 1.7 0 0 Z " fill="#0C1F23" transform="translate(622,757)"/>
<path d="M0 0 C1.67542976 0.28604898 3.34385343 0.61781233 5 1 C2.31158141 3.25245881 0.35358125 4.88213958 -3 6 C-1.125 1.125 -1.125 1.125 0 0 Z " fill="#1D3134" transform="translate(591,655)"/>
<path d="M0 0 C1.32 0.66 2.64 1.32 4 2 C3.34 3.65 2.68 5.3 2 7 C1.01 6.67 0.02 6.34 -1 6 C-1.042721 4.33388095 -1.04063832 2.66617115 -1 1 C-0.67 0.67 -0.34 0.34 0 0 Z " fill="#14282B" transform="translate(444,643)"/>
<path d="M0 0 C0.99 0 1.98 0 3 0 C2.67 1.98 2.34 3.96 2 6 C1.01 5.67 0.02 5.34 -1 5 C-0.67 3.35 -0.34 1.7 0 0 Z " fill="#0F2E32" transform="translate(531,596)"/>
<path d="M0 0 C0.66 0.33 1.32 0.66 2 1 C2 3.31 2 5.62 2 8 C1.01 8 0.02 8 -1 8 C-1.04241723 5.66705225 -1.04092937 3.33297433 -1 1 C-0.67 0.67 -0.34 0.34 0 0 Z " fill="#011C1A" transform="translate(758,560)"/>
<path d="M0 0 C3.3 0 6.6 0 10 0 C10 0.66 10 1.32 10 2 C10.99 2.33 11.98 2.66 13 3 C11.33388095 3.042721 9.66617115 3.04063832 8 3 C7.67 2.67 7.34 2.34 7 2 C4.67182036 1.63239269 2.3381615 1.29758419 0 1 C0 0.67 0 0.34 0 0 Z " fill="#172F31" transform="translate(582,811)"/>
<path d="M0 0 C0 0.99 0 1.98 0 3 C0.66 3.33 1.32 3.66 2 4 C0.35 4.33 -1.3 4.66 -3 5 C-3 4.01 -3 3.02 -3 2 C-3.66 1.67 -4.32 1.34 -5 1 C-3 0 -3 0 0 0 Z " fill="#233438" transform="translate(595,769)"/>
<path d="M0 0 C1.32 0 2.64 0 4 0 C4 0.66 4 1.32 4 2 C1.69 3.32 -0.62 4.64 -3 6 C-2 4 -1 2 0 0 Z " fill="#1A2F32" transform="translate(647,741)"/>
<path d="M0 0 C0.66 0.33 1.32 0.66 2 1 C0.3125 3.5 0.3125 3.5 -2 6 C-4.75 6.3125 -4.75 6.3125 -7 6 C-6.21625 5.38125 -5.4325 4.7625 -4.625 4.125 C-2.03162353 2.10141339 -2.03162353 2.10141339 0 0 Z " fill="#183638" transform="translate(636,566)"/>
<path d="M0 0 C0.33 0 0.66 0 1 0 C1 1.98 1 3.96 1 6 C-0.98 6.33 -2.96 6.66 -5 7 C-4.19152271 5.83054208 -3.37810888 4.66449539 -2.5625 3.5 C-2.11003906 2.8503125 -1.65757812 2.200625 -1.19140625 1.53125 C-0.79824219 1.0259375 -0.40507813 0.520625 0 0 Z " fill="#263B3E" transform="translate(602,432)"/>
<path d="M0 0 C1.65 0 3.3 0 5 0 C5.33 0.99 5.66 1.98 6 3 C4.68 3.33 3.36 3.66 2 4 C1.34 2.68 0.68 1.36 0 0 Z " fill="#061A1D" transform="translate(623,344)"/>
<path d="M0 0 C-0.99 1.485 -0.99 1.485 -2 3 C-3.9375 2.625 -3.9375 2.625 -6 2 C-6.33 1.34 -6.66 0.68 -7 0 C-3.86650268 -1.04449911 -3.01031744 -0.93423645 0 0 Z " fill="#0B3534" transform="translate(385,329)"/>
<path d="M0 0 C2.475 0.495 2.475 0.495 5 1 C5 1.99 5 2.98 5 4 C3.35 3.67 1.7 3.34 0 3 C0 2.01 0 1.02 0 0 Z " fill="#08191D" transform="translate(456,776)"/>
<path d="M0 0 C0.33 0 0.66 0 1 0 C2.12029814 5.48946087 1.79217969 8.83430559 0 14 C-0.33 14 -0.66 14 -1 14 C-1.08333357 9.1666528 -0.95261487 4.76307437 0 0 Z " fill="#5F7476" transform="translate(523,749)"/>
<path d="M0 0 C-0.99 0 -1.98 0 -3 0 C-2.67 0.99 -2.34 1.98 -2 3 C-3.98 3 -5.96 3 -8 3 C-7.67 2.01 -7.34 1.02 -7 0 C-3.86650268 -1.04449911 -3.01031744 -0.93423645 0 0 Z " fill="#243B3C" transform="translate(628,690)"/>
<path d="M0 0 C3.76488042 1.72154788 6.15063897 3.99234114 9 7 C6 7 6 7 4.39453125 5.46875 C3.87246094 4.8190625 3.35039062 4.169375 2.8125 3.5 C2.28269531 2.8503125 1.75289063 2.200625 1.20703125 1.53125 C0.80871094 1.0259375 0.41039062 0.520625 0 0 Z " fill="#3F4C50" transform="translate(356,608)"/>
<path d="M0 0 C0.66 0 1.32 0 2 0 C1.34 2.31 0.68 4.62 0 7 C-0.99 7 -1.98 7 -3 7 C-1.125 1.125 -1.125 1.125 0 0 Z " fill="#0D252A" transform="translate(526,412)"/>
<path d="M0 0 C4.75 1.875 4.75 1.875 7 3 C5.02 3.99 5.02 3.99 3 5 C1.68 3.68 0.36 2.36 -1 1 C-0.67 0.67 -0.34 0.34 0 0 Z " fill="#143E3D" transform="translate(402,344)"/>
</svg>
