<svg xmlns="http://www.w3.org/2000/svg" viewBox="0 0 500 500" fill="none">
  <circle cx="250" cy="250" r="250" fill="#FF0420"/>
  <path d="M177.133 316.446C162.247 316.446 150.051 312.943 140.544 305.938C131.162 298.808 126.471 288.676 126.471 275.541C126.471 272.789 126.784 269.411 127.409 265.408C129.035 256.401 131.35 245.581 134.352 232.947C143.359 194.884 165.749 175.853 201.524 175.853C211.406 175.853 220.226 177.541 227.981 180.918C235.736 184.17 241.803 189.049 246.181 195.553C250.559 201.933 252.748 209.563 252.748 218.445C252.748 221.072 252.435 224.387 251.81 228.39C249.934 238.898 247.681 249.718 245.054 260.851C240.426 278.006 232.546 291.078 221.413 300.085C210.406 308.992 195.832 316.446 177.133 316.446ZM180.635 284.344C187.765 284.344 193.769 282.03 198.647 277.402C203.65 272.774 207.153 265.845 209.154 256.588C211.906 244.83 214.033 235.01 215.534 227.13C216.159 223.752 216.472 220.5 216.472 217.373C216.472 206.115 210.843 200.486 199.585 200.486C192.455 200.486 186.388 202.8 181.385 207.428C176.507 212.056 173.066 219.048 171.065 228.43C169.189 236.06 167.062 245.83 164.685 257.838C164.06 261.091 163.747 264.155 163.747 267.032C163.747 278.54 169.501 284.344 180.635 284.344Z" fill="white"/>
  <path d="M259.479 314.57C258.103 314.57 257.04 314.132 256.29 313.257C255.665 312.257 255.477 311.069 255.728 309.693L282.119 181.606C282.369 180.105 283.12 178.854 284.371 177.854C285.621 176.853 286.934 176.353 288.31 176.353H340.472C354.733 176.353 366.054 179.355 374.434 185.359C382.939 191.363 387.192 199.931 387.192 211.064C387.192 214.191 386.817 217.506 386.067 221.009C382.689 236.52 376.06 248.153 366.178 255.908C356.421 263.663 343.224 267.541 326.694 267.541H295.592L286.559 309.693C286.309 311.194 285.559 312.445 284.308 313.445C283.058 314.195 281.745 314.57 280.369 314.57H259.479ZM328.57 239.397C334.074 239.397 338.827 237.959 342.83 235.082C346.958 232.205 349.835 228.077 351.461 222.698C351.961 220.572 352.211 218.633 352.211 216.882C352.211 212.879 350.898 209.876 348.271 207.875C345.644 205.749 341.391 204.686 335.512 204.686H309.121L301.589 239.397H328.57Z" fill="white"/>
</svg>
